<svg xmlns="http://www.w3.org/2000/svg">
<defs>
<font id="DYLOVA5TUFF" horiz-adv-x="1200" >
  <font-face 
    font-family="DYLOVA5TUFF"
    font-weight="400"
    font-stretch="normal"
    units-per-em="2048"
    panose-1="2 0 5 0 0 0 0 0 0 0"
    ascent="1638"
    descent="-410"
    x-height="1431"
    cap-height="1434"
    bbox="-5 -249 1574 1714"
    underline-thickness="150"
    underline-position="-142"
    unicode-range="U+0020-U+F002"
  />
<missing-glyph horiz-adv-x="1100" 
d="M100 0v1434h824v-1434h-824zM172 91h677v1268h-677v-1268zM543 460q18 19 18 47v34v0v31v1v1v1v3v0v1v1q1 1 1 3v1v0v0v2l1 1v0v2l1 1v0v2v0v1q1 1 1 3v0l1 1v0v1l1 1v1v0l1 1v1v1l1 1v0v0q1 1 1 2l1 2v0l1 1v0v1h1v1q1 1 1 2h1v1v0q5 6 10 10v0l1 1v0l1 1v0l1 1h1l1 1v0
l1 1v0v0h1v1h1l4 2l1 1v0h1h1v1q1 0 3 1v0v0h1v0h1h1q1 1 2 1h1q2 1 4 1h9q74 0 127 60q52 59 52 143v157q0 83 -52 143q-53 60 -127 60h-242q-74 0 -127 -60t-53 -143h1v-1q0 -1 -1 -3v-1q0 -27 18 -47t42 -20q25 0 43 20q17 20 17 47v3v2v0q0 27 18 47q17 20 42 20h63v0
h116v0h63q25 0 42 -20q18 -20 18 -47v-159v-1v-1v-1v-1h-1v-3v-1v-1v0v-1v-1l-1 -1v-1v0v-1v-1v0l-1 -1v0v-2v0v-2l-1 -1v-1v0v-1l-1 -1v-1v-1h-1v-1v0l-1 -1v-1v0v0l-1 -1v0v-1l-1 -2v0l-1 -1v0v-1l-1 -1v-1v0v0l-1 -1v0l-1 -2v0l-1 -1q-3 -4 -6 -7v0l-2 -2v0l-2 -2h-1v-1
h-1v-1h-1v-1h-1v0q-4 -3 -8 -5v0l-2 -1v0h-1v0l-1 -1v0q-6 -2 -12 -3h-14h-5h-1q-4 0 -8 -1v0h-4v0q-1 -1 -3 -1h-1l-3 -1h-2h-2l-2 -1l-3 -1h-2l-2 -1h-2l-2 -1h-2l-2 -1l-2 -1l-3 -1h-1l-3 -1l-2 -1l-2 -1l-1 -1l-3 -1l-1 -1q-2 0 -4 -1v0q-1 -1 -3 -2l-1 -1l-3 -1l-1 -1
l-3 -1l-1 -1q-1 -1 -3 -2v0l-4 -2v-1q-2 -1 -3 -2h-1q-1 -1 -3 -2v-1l-4 -2v0q-1 -2 -3 -3v0q-2 -1 -3 -3h-1l-3 -3v0l-3 -3l-1 -1l-2 -2l-1 -1l-2 -2l-1 -1l-2 -2l-1 -1q-1 -2 -3 -3q-1 -1 -2 -3l-1 -1q-1 -2 -2 -3l-1 -1l-2 -2l-1 -2l-2 -2v-1l-2 -3l-1 -1l-2 -3v-1
q-1 -1 -2 -3l-1 -1l-2 -3v0l-2 -4v0q-2 -2 -2 -4v0q-2 -2 -3 -4v-1q-2 -3 -4 -8v0q-1 -2 -1 -4l-1 -1l-1 -3l-1 -2q-1 -4 -3 -8v0q-1 -4 -2 -9l-1 -1q-1 -2 -1 -4v0q-1 -2 -1 -4l-1 -2v-3l-1 -2v-2l-1 -2q0 -4 -1 -8v-2q0 -2 -1 -4v0v-4v-1q-1 -5 -1 -10v0q0 -3 -1 -5v-5v0

<glyph glyph-name=".notdef" horiz-adv-x="1100" 
d="M100 0v1434h824v-1434h-824zM172 91h677v1268h-677v-1268zM543 460q18 19 18 47v34v0v31v1v1v1v3v0v1v1q1 1 1 3v1v0v0v2l1 1v0v2l1 1v0v2v0v1q1 1 1 3v0l1 1v0v1l1 1v1v0l1 1v1v1l1 1v0v0q1 1 1 2l1 2v0l1 1v0v1h1v1q1 1 1 2h1v1v0q5 6 10 10v0l1 1v0l1 1v0l1 1h1l1 1v0
l1 1v0v0h1v1h1l4 2l1 1v0h1h1v1q1 0 3 1v0v0h1v0h1h1q1 1 2 1h1q2 1 4 1h9q74 0 127 60q52 59 52 143v157q0 83 -52 143q-53 60 -127 60h-242q-74 0 -127 -60t-53 -143h1v-1q0 -1 -1 -3v-1q0 -27 18 -47t42 -20q25 0 43 20q17 20 17 47v3v2v0q0 27 18 47q17 20 42 20h63v0
h116v0h63q25 0 42 -20q18 -20 18 -47v-159v-1v-1v-1v-1h-1v-3v-1v-1v0v-1v-1l-1 -1v-1v0v-1v-1v0l-1 -1v0v-2v0v-2l-1 -1v-1v0v-1l-1 -1v-1v-1h-1v-1v0l-1 -1v-1v0v0l-1 -1v0v-1l-1 -2v0l-1 -1v0v-1l-1 -1v-1v0v0l-1 -1v0l-1 -2v0l-1 -1q-3 -4 -6 -7v0l-2 -2v0l-2 -2h-1v-1
h-1v-1h-1v-1h-1v0q-4 -3 -8 -5v0l-2 -1v0h-1v0l-1 -1v0q-6 -2 -12 -3h-14h-5h-1q-4 0 -8 -1v0h-4v0q-1 -1 -3 -1h-1l-3 -1h-2h-2l-2 -1l-3 -1h-2l-2 -1h-2l-2 -1h-2l-2 -1l-2 -1l-3 -1h-1l-3 -1l-2 -1l-2 -1l-1 -1l-3 -1l-1 -1q-2 0 -4 -1v0q-1 -1 -3 -2l-1 -1l-3 -1l-1 -1
l-3 -1l-1 -1q-1 -1 -3 -2v0l-4 -2v-1q-2 -1 -3 -2h-1q-1 -1 -3 -2v-1l-4 -2v0q-1 -2 -3 -3v0q-2 -1 -3 -3h-1l-3 -3v0l-3 -3l-1 -1l-2 -2l-1 -1l-2 -2l-1 -1l-2 -2l-1 -1q-1 -2 -3 -3q-1 -1 -2 -3l-1 -1q-1 -2 -2 -3l-1 -1l-2 -2l-1 -2l-2 -2v-1l-2 -3l-1 -1l-2 -3v-1
q-1 -1 -2 -3l-1 -1l-2 -3v0l-2 -4v0q-2 -2 -2 -4v0q-2 -2 -3 -4v-1q-2 -3 -4 -8v0q-1 -2 -1 -4l-1 -1l-1 -3l-1 -2q-1 -4 -3 -8v0q-1 -4 -2 -9l-1 -1q-1 -2 -1 -4v0q-1 -2 -1 -4l-1 -2v-3l-1 -2v-2l-1 -2q0 -4 -1 -8v-2q0 -2 -1 -4v0v-4v-1q-1 -5 -1 -10v0q0 -3 -1 -5v-5v0
v0v-68q0 -28 18 -47q17 -20 42 -20t42 20zM441 610l1 5q0 -3 -1 -5zM543 230q18 20 18 48v0q0 28 -18 48q-17 20 -42 20t-42 -20q-18 -20 -18 -48v0q0 -28 18 -48q17 -20 42 -20t42 20z" />
    <glyph glyph-name=".null" horiz-adv-x="0" 
 />
    <glyph glyph-name="nonmarkingreturn" horiz-adv-x="508" 
 />
    <glyph glyph-name="space" unicode=" " horiz-adv-x="508" 
 />
    <glyph glyph-name="space" unicode="&#xa0;" horiz-adv-x="508" 
 />
    <glyph glyph-name="exclam" unicode="!" horiz-adv-x="672" 
d="M167 28q29 29 29 70v0q0 40 -29 69q-28 29 -69 29q-40 0 -69 -29t-29 -69v0q0 -41 29 -70q29 -28 69 -28q41 0 69 28zM167 313q29 33 29 79v928q-1 47 -29 79q-28 33 -69 33q-40 0 -69 -33t-29 -78v-929q0 -46 29 -79q29 -32 69 -32q41 0 69 32z" />
    <glyph glyph-name="quotedbl" unicode="&#x22;" horiz-adv-x="672" 
d="M288 1624q0 37 -26 64q-27 26 -64 26t-64 -26q-26 -27 -26 -64v-90q0 -33 21 -58q22 -25 53 -31l-26 -45q-11 -19 -5 -40q5 -22 24 -33t40 -5t32 25l11 17t14 23q16 29 16 43v194zM527 1322q21 6 32 25l11 17t14 23q16 29 16 43v194q0 37 -27 64q-26 26 -63 26t-64 -26
q-26 -27 -26 -64v-90q0 -33 21 -58t53 -31l-26 -45q-11 -19 -6 -40q6 -22 25 -33t40 -5z" />
    <glyph glyph-name="numbersign" unicode="#" horiz-adv-x="1755" 
d="M794 1399q-21 28 -62 28q-40 0 -76 -28q-36 -29 -45 -69l-76 -310h-310q-40 0 -76 -29q-35 -29 -45 -69t12 -69t62 -29h310l-54 -221h-310q-40 0 -76 -29q-35 -29 -45 -69t12 -69t62 -29h310l-75 -310q-10 -40 12 -69q21 -28 62 -28q40 0 76 28q35 29 45 69l75 310h222
l-76 -310q-9 -40 12 -69q22 -28 63 -28q40 0 76 28q35 29 45 69l75 310h310q41 1 76 29q36 28 46 69q9 40 -12 69q-22 29 -62 29h-310l53 221h310q41 1 76 29q36 28 46 69q9 40 -12 69q-22 29 -62 29h-310l75 310q9 40 -12 69q-21 28 -62 28q-40 0 -76 -28q-36 -29 -45 -69
l-76 -310h-221l75 310q9 40 -12 69zM640 606l53 221h222l-54 -221h-221z" />
    <glyph glyph-name="dollar" unicode="$" 
d="M892 946q-39 0 -67 27q-29 27 -31 66v104q0 41 -29 69q-29 29 -70 29h-400q-40 0 -69 -29q-29 -28 -29 -69v-104v0v-19v0v-104q0 -41 29 -70t69 -29h105v0h295q122 0 209 -87t87 -208v-228q0 -122 -87 -209q-87 -86 -209 -86h-101v-149q0 -41 -29 -70t-70 -29
q-40 0 -69 29t-29 70v149h-102q-121 0 -208 86q-87 87 -87 209v105v0q2 23 14 44v0l1 2v0l1 2v0l2 2v0l1 1v1q3 3 6 7l3 3v0l1 2h1l3 3l1 1v0l2 2h1l1 1l2 2l2 1l1 1h1l1 2h1v0l2 1l1 1h1l1 1l2 1v0l2 1h1l1 1h1l1 1h1v1h2l1 1h1h1l1 1h2l1 1h1l6 2h1h1h1h1v0l2 1h2h1h2l2 1
v0h2v0h3h10h2v0h2h1l2 -1v0h1h1h2v0l3 -1v0v0h1h2v0q2 -1 4 -1l1 -1h2v0l2 -1h1v0l1 -1h1h1l1 -1q2 -1 4 -1l1 -1v0l1 -1v0h2l1 -1v0l2 -1h1l1 -1l2 -1l1 -1h1l2 -2l1 -1h1v0l2 -1q1 -1 2 -3l2 -1l2 -2h1v0q1 -2 2 -3q2 -1 3 -2v-1l2 -1l1 -1v0v-1l2 -2l1 -1q1 -2 3 -5
q1 -1 2 -3l1 -1l1 -1q1 -1 1 -3l1 -1l1 -1q1 -3 3 -6v-2h1v0q6 -16 7 -32v0v-105q0 -41 29 -69q29 -29 69 -29h400q41 0 70 29q29 28 29 69v105v0v18v0v105q0 40 -29 69t-70 29h-104v0h-296q-121 0 -208 87t-87 209v227q0 122 87 209t208 87h102v149q0 40 29 69t69 29
q41 0 70 -29t29 -69v-149h101q122 0 209 -87t87 -209v-104v0q-3 -39 -31 -66q-29 -27 -68 -27v0z" />
    <glyph glyph-name="percent" unicode="%" horiz-adv-x="1600" 
d="M991 1336q0 40 29 69q28 29 69 29q40 0 69 -29t29 -69v-187q4 -45 -28 -77l-179 -179l-13 -13l-12 -12l-12 -12l-13 -13l-12 -12l-12 -12l-12 -12l-12 -12l-11 -11q34 11 70 11h190q93 0 159 -65q66 -66 66 -158v-349q0 -92 -66 -158q-66 -65 -159 -65h-190
q-93 0 -159 65q-66 66 -66 158v349q0 35 10 68l-2 -3l-311 -311l-20 -19l-28 -29v-180q0 -41 -29 -70q-29 -28 -69 -28q-41 0 -69 28q-29 29 -29 70v215q-3 44 28 75l253 252h-1h-1v0h-1v0h-1h-1l-4 -1h-1h-5v0h-1l-1 -1h-1h-2h-1h-1h-2h-4v0h-197q-93 0 -159 65
q-66 66 -66 158v349q0 92 66 158t159 66h190q93 0 159 -66t66 -158v-355q0 -6 -1 -10v-1v0v-6v0q0 -3 -1 -5v0v-4l353 352v155zM941 600q-13 0 -21 -8q-9 -8 -9 -20v-349q0 -12 9 -20q8 -9 21 -9h190q12 0 21 9q9 8 9 20v349q0 12 -9 20t-21 8h-190zM225 1239q-13 0 -21 -9
q-9 -8 -9 -20v-349q0 -12 9 -20q8 -8 21 -8h190q13 0 21 8q9 8 9 20v349q0 12 -9 20q-8 9 -21 9h-190z" />
    <glyph glyph-name="ampersand" unicode="&#x26;" horiz-adv-x="1600" 
d="M543 1433q112 0 192 -80t80 -193v-265q0 -87 -50 -158q-50 -69 -129 -98l156 -164v197q0 40 29 69t69 29q41 0 70 -29t29 -69v-372v-5v0q0 -12 -1 -25l70 -73h203q40 0 69 -29t29 -69q0 -41 -29 -70t-69 -29h-225q-4 0 -9 1q-48 -6 -81 28l-50 52q-85 -81 -202 -81h-399
q-122 0 -208 87q-87 87 -87 208v227q0 110 72 194q-67 77 -67 179v265q0 113 80 193t192 80h266zM197 418v-18v0v-105q0 -40 29 -69q28 -29 69 -29h104v0h191v0h104q38 0 66 26l-379 397h-86q-41 0 -69 -28q-29 -29 -29 -70v-104v0zM277 1238q-32 0 -55 -23q-22 -23 -22 -55
v-265q0 -32 22 -55q23 -23 55 -23h266q32 0 54 23q23 23 23 55v265q0 32 -23 55q-22 23 -54 23h-266z" />
    <glyph glyph-name="quotesingle" unicode="'" horiz-adv-x="400" 
d="M107 1308q21 6 32 25l11 17t14 23q16 29 16 43v194q0 37 -26 64q-27 26 -64 26t-64 -26q-26 -27 -26 -64v-90q0 -33 21 -58q22 -25 53 -31l-26 -45q-11 -19 -5 -40q5 -22 24 -33t40 -5z" />
    <glyph glyph-name="parenleft" unicode="(" horiz-adv-x="700" 
d="M241 1235v124q0 48 -34 83q-35 34 -83 34v0h-4h-2h-1q-48 0 -83 34q-34 35 -34 83t34 83q35 34 83 34h2h5v0v0q145 0 248 -103t103 -248v-1009q0 -144 -103 -247t-248 -103v0v0h-5h-2q-48 0 -83 34q-34 34 -34 83q0 48 34 82q35 35 83 35h4h3v0q48 0 83 34q34 34 34 82
v125v0v760v0z" />
    <glyph glyph-name="parenright" unicode=")" horiz-adv-x="700" 
d="M234 1235v-760v0v-125q0 -48 35 -82q34 -34 82 -34v0h3h4q48 0 83 -35q34 -34 34 -82q0 -49 -34 -83q-35 -34 -83 -34h-2h-5v0v0q-145 0 -248 103t-103 247v1009q0 145 103 248t248 103v0v0h5h2q48 0 83 -34q34 -35 34 -83t-34 -83q-35 -34 -83 -34h-1h-2h-4v0
q-48 0 -82 -34q-35 -35 -35 -83v-124v0z" />
    <glyph glyph-name="asterisk" unicode="*" horiz-adv-x="1100" 
d="M189 1000q36 0 60 26l191 199l191 -199q24 -26 60 -26q35 0 60 26t25 63q-1 36 -25 63l-105 110h148q36 2 61 27t25 63q0 36 -25 62q-25 27 -60 27h-149l105 110q24 27 25 63q0 37 -25 63t-60 26q-36 0 -60 -26l-191 -199l-191 199q-24 26 -60 26q-35 0 -60 -26t-25 -63
t25 -63l105 -110h-149q-35 0 -60 -26q-25 -27 -25 -63q0 -37 25 -63q25 -27 60 -27h149l-105 -110q-25 -26 -25 -63t25 -63t60 -26z" />
    <glyph glyph-name="plus" unicode="+" horiz-adv-x="1000" 
d="M554 132q23 22 23 54v242h244q32 0 55 22q23 23 23 55q0 31 -23 54q-23 22 -55 22h-244v242q-1 32 -23 54q-22 23 -55 23q-31 0 -54 -23q-23 -22 -23 -54v-242h-245q-32 -1 -54 -22q-23 -23 -23 -54q0 -32 23 -54q22 -23 54 -23h245v-242q0 -32 23 -54q22 -23 54 -23
t55 23z" />
    <glyph glyph-name="comma" unicode="," horiz-adv-x="400" 
d="M189 14v89q0 39 -27 66q-28 28 -66 28h-3q-38 0 -66 -28q-27 -27 -27 -66q0 -32 20 -57q19 -25 49 -33l-17 -31q-11 -19 -6 -41q6 -22 26 -33q19 -12 41 -6t49 48t27 64z" />
    <glyph glyph-name="hyphen" unicode="-" 
d="M953 562q-28 28 -67 28h-794q-39 -1 -67 -28t-28 -67q0 -39 28 -67t67 -28h794q39 0 67 28t28 67t-28 67z" />
    <glyph glyph-name="hyphen" unicode="&#xad;" 
d="M953 562q-28 28 -67 28h-794q-39 -1 -67 -28t-28 -67q0 -39 28 -67t67 -28h794q39 0 67 28t28 67t-28 67z" />
    <glyph glyph-name="period" unicode="." horiz-adv-x="400" 
d="M88 0q36 0 62 26q26 25 26 62v0q0 36 -26 62t-62 26v0q-36 0 -62 -26t-26 -62v0q0 -37 26 -62q26 -26 62 -26v0z" />
    <glyph glyph-name="slash" unicode="/" 
d="M788 1336v2l1 3v0v2v1v2l2 12l1 2v0v1q9 30 32 49v1l4 2l2 2v0l2 1l2 1v0l2 1l2 2v0v0l8 4l2 1v0q2 1 4 1l2 1l3 1q4 1 9 2v0h2l2 1h3h2h3h9h3h2h2l3 -1h2l2 -1q3 0 5 -1h2v0l2 -1v0l2 -1q3 -1 5 -1l2 -1v0l8 -4v0l2 -2v0l2 -1l2 -1v0l2 -1v0l2 -2v0l2 -1l1 -1v-1l2 -1v0
q2 -1 3 -3h1l1 -2l2 -1q1 -2 3 -4v0l1 -1l6 -8v0l1 -2q14 -21 16 -47v0v-2v-1v-2v-189q4 -45 -27 -77l-381 -397l-379 -395v-180q0 -41 -28 -70q-28 -28 -66 -28q-39 0 -67 28q-28 29 -28 70v214q-2 45 28 76l760 792v156z" />
    <glyph glyph-name="zero" unicode="0" 
d="M399 196h190v0h104q40 0 69 29t29 69v0v3v8v0v3v0v2v0l1 1v1v0v5h-1v719l-240 -416l-244 -423h2h1h3v0l3 -1v0h2h9h72v0zM987 294v0q0 -121 -86 -208q-86 -86 -208 -86h-399q-121 0 -207 86q-87 87 -87 208v847q0 121 86 208q87 86 208 86h399q122 0 208 -86
q86 -87 86 -208v-824h-1v0q1 -4 1 -8v-2v0v-4v-1v-3v-5zM196 1036v-637l485 839h-92v1h-190v-1h-105q-40 0 -69 -28q-28 -29 -28 -69v-105h-1z" />
    <glyph glyph-name="one" unicode="1" 
d="M168 1081q28 29 28 69v87l223 1v-1042h-321q-40 0 -69 -29t-29 -69q0 -41 29 -69q29 -29 69 -29h789q41 0 70 28q30 29 30 70q0 31 -1 93v92q0 41 -29 70q-28 28 -69 28q-40 0 -69 -29q-29 -28 -29 -69v-87h-175v1132q3 42 -26 74t-72 32h-417q-41 0 -70 -29
q-30 -28 -30 -69v-186q0 -40 29 -69t69 -29q41 0 70 29z" />
    <glyph glyph-name="two" unicode="2" 
d="M196 196v51v0v49q-11 139 103 232q72 59 262 139q203 84 278 138q132 94 148 230v105q0 121 -87 207q-86 87 -207 87h-399q-121 0 -208 -87q-86 -86 -86 -207v0v-1v-4v-1q0 -41 29 -70t69 -29q41 0 70 29q28 29 28 70v0v2v4v0q0 40 29 69q29 28 69 28h104v1h190v-1h105
q40 0 69 -28q28 -29 28 -69v-71q-8 -81 -133 -154q-18 -10 -271 -127q-180 -84 -266 -164q-120 -112 -120 -262v-217v-2v-1v-1l1 -2v-3v0l2 -12v0v-1l-2 -12v-3l-1 -2v-1v-1v-2v-4q0 -41 29 -69q29 -29 69 -29h793h3h2v0q5 0 9 1v0l8 2v0h1v0h1l1 1q7 2 13 5h1v0h1l1 1v0
l2 1v0l1 1v0h1l1 1h1l1 1h1l1 1v0l2 1v1h1l1 1h1l1 1l1 1l1 1v0l2 1v0l2 2v0l1 1h1v1l1 1l2 2l2 1l1 2v0l2 2l1 1v0l1 1v1v0v0h1v0v0v1v0v0v0h1v1v0v0v0v0v0v0v0v1h1v0v0l1 2v0l1 1l1 2v0l2 2l1 2v0v1l1 1v0v0v0v0v0v1v0v0v0v0h1v1v0v0v1l1 1l1 1v1v1h1v2l1 2v0v1v0l1 2l1 2
v2v0l1 2v0l1 2v0v2v0v2l1 1v1v1v0v0q1 2 1 3v2v0v1v2v2h1v1v2v190q0 41 -29 70q-29 28 -69 28q-41 0 -70 -28q-29 -29 -29 -70v-87h-594z" />
    <glyph glyph-name="three" unicode="3" 
d="M987 1140q0 122 -86 208q-87 87 -208 87h-399q-121 0 -208 -87q-86 -86 -86 -208v0v0v-4v-2q0 -40 29 -69t69 -29q41 0 70 29t29 69v3q-1 2 -1 3h1q0 41 28 70q29 28 69 28h105v1h190v-1h104q40 0 69 -28q29 -29 29 -70v-104v0v-18v0v-104q0 -41 -29 -70q-29 -28 -69 -28
h-104v0h-171q-41 0 -70 -29t-29 -70q0 -40 29 -69t70 -29h171v0h104q40 0 69 -29t29 -69v-104v0v-19v0v-104q0 -40 -29 -69t-69 -29h-104v0h-190v0h-105q-40 0 -69 29q-28 29 -28 69h-1l1 3v3q0 41 -29 70q-29 28 -70 28q-40 0 -69 -28q-29 -29 -29 -70v-1v-5v0v0
q0 -121 86 -208q87 -86 208 -86h399q121 0 208 86q86 87 86 208v234v1v0v7q0 8 -1 15v0q0 4 -1 7v1q-1 6 -2 13v3q-2 6 -3 12v1l-2 5v3v0l-1 3v0l-1 5l-2 3v3l-1 3q-1 3 -2 5l-1 2q0 2 -1 4l-1 1q-1 3 -2 5l-1 5l-1 1l-2 4l-1 3l-2 4l-1 2l-2 3q-1 3 -2 5l-1 2
q-17 32 -41 58q29 33 47 71l2 4l1 3l1 3h1l1 3l1 3v0l2 6h1l2 6v1q2 5 4 11v2l2 5l1 4l1 3v3v1l1 3q1 2 1 5v1l1 4l1 5l1 5v0q1 4 1 7v1q1 3 1 6v1q1 7 1 14v1v7v0v1v233z" />
    <glyph glyph-name="four" unicode="4" 
d="M965 259q-29 -29 -69 -29h-111v-132q0 -41 -29 -69q-28 -29 -69 -29q-40 0 -69 29q-29 28 -29 69v132h-481h-2q-27 0 -50 13q-35 20 -45 60q-11 39 9 74l582 1008q20 35 60 45q39 11 74 -9t46 -60q10 -39 -10 -74l-251 -435l-245 -425h313v201q0 40 29 69t69 29
q41 0 69 -29q29 -29 29 -69v-201h111q40 0 69 -29t29 -70q0 -40 -29 -69z" />
    <glyph glyph-name="five" unicode="5" 
d="M396 619q198 -1 297 -1q40 0 69 -28q28 -29 28 -69v-227q0 -40 -28 -69q-29 -29 -69 -29h-399q-40 0 -69 29t-29 69v6q0 40 -28 69q-29 29 -70 29q-40 0 -69 -29t-29 -69v-6q0 -121 86 -208q87 -86 208 -86h366q136 0 228 76q99 82 99 218v203q0 132 -79 223
q-83 95 -215 95h-494v422q99 0 296 1h295v-88q0 -40 29 -69t70 -29q40 0 69 29t29 69v186q-1 40 -29 69q-29 29 -69 29h-791q-40 0 -69 -29t-29 -69v-619q0 -41 29 -69q30 -29 71 -29h296z" />
    <glyph glyph-name="six" unicode="6" 
d="M988 497h-2q0 3 1 6v1v0v1v0v2v0v1q0 3 1 7l-1 5v1h1q0 122 -87 208q-86 87 -208 87h-338l272 472q20 35 10 74q-11 40 -46 60t-74 9q-40 -10 -60 -45l-415 -715q-19 -31 -30 -66v0l-1 -4l-1 -4l-1 -5l-1 -2l-1 -4v-2v-1q-2 -5 -3 -11v-4l-1 -4v-4l-1 -3v0v-3v-2l-1 -2
v-6v0v-1q0 -3 -1 -6v-1v-7v-1v-7v-203h2v0l-1 -1v0v-1v-1v0v-1v-1v0v-1v0v-1l-1 -2v0v-1v-2v0v-5v-1v0v-1v-5v0v0q0 -121 86 -208q87 -86 208 -86h399q122 0 208 86q87 87 87 208v203zM196 318v99h1v104q0 41 28 69q29 29 69 29h105v0h190v0h104q40 0 69 -29q29 -28 29 -69
v0v-5v0v-2v0v-5v0v-2v0v-1l1 -2v0v-1v-1v0v-1v0v-1v-2v0l1 -1h-2v-99v0v-104q0 -40 -29 -69t-69 -29h-104v0h-190v0h-105q-40 0 -69 29q-28 29 -28 69h-1l1 3v4q0 3 -1 7v4v1v0v1v1l-1 1v0v1v0v1h1z" />
    <glyph glyph-name="seven" unicode="7" 
d="M169 1081q29 29 29 70v87h573v-106l-574 -984q-21 -35 -10 -75q11 -39 46 -59q35 -21 75 -10t61 45l293 504l294 504h1v1v0v1h1v0v1v0l1 1v1v0l1 1v0v0v1v0v1h1v1v1l1 2v0q4 10 6 20h2v247q0 41 -30 69q-29 29 -70 29h-773h-3h-2h-3l-2 -1h-3v0h-2l-3 -1q-2 0 -4 -1v0h-3
l-2 -1l-2 -1q-3 -1 -5 -2v0h-2v0q-4 -2 -9 -4v-1l-2 -1v0l-2 -1v0l-2 -1v0l-2 -1v-1l-2 -1v0l-2 -1v0l-2 -2v0l-2 -1v0l-2 -2v0l-1 -1v0l-2 -2v0l-2 -1v-1l-2 -1l-1 -2v0l-2 -2v0l-1 -1v-1l-2 -1l-1 -2v0l-2 -2v0l-1 -2l-1 -2v0l-2 -2l-1 -2v0l-1 -2q-2 -3 -3 -6v-1l-1 -2
q-6 -14 -8 -30v0v-3v0v-2v-188q0 -41 29 -70q29 -28 70 -28t70 28z" />
    <glyph glyph-name="eight" unicode="8" 
d="M981 1140q0 121 -86 207q-85 87 -205 87h-400q-4 0 -8 -1h-7t-7 -1q-4 0 -8 -1q-3 0 -7 -1q-3 0 -7 -1q-4 0 -7 -1t-7 -2t-7 -1q-3 -1 -7 -2q-3 -1 -7 -2q-3 -1 -7 -3l-6 -2q-4 -1 -7 -3q-4 -1 -6 -2q-3 -2 -7 -3q-3 -2 -6 -3q-3 -2 -7 -3l-6 -4q-3 -1 -6 -3l-6 -4l-6 -4
l-6 -4q-2 -1 -6 -4q-3 -2 -5 -4l-6 -4l-5 -5q-3 -2 -5 -4q-3 -3 -6 -5l-5 -5q-3 -2 -5 -5v0l-5 -5q-2 -2 -4 -5l-5 -5l-5 -5q-1 -3 -4 -6l-4 -6q-2 -2 -4 -5q-3 -3 -4 -6l-4 -6l-4 -6t-3 -6v0l-4 -6q-1 -3 -3 -7q-2 -3 -3 -6q-2 -3 -3 -7q-2 -3 -3 -6t-3 -7l-2 -6
q-2 -4 -3 -7q-1 -4 -2 -7t-2 -7t-2 -7t-2 -7t-1 -7q-1 -3 -2 -7q0 -5 -1 -8q0 -3 -1 -7q0 -4 -1 -7v-8q-1 -4 -1 -7v-8v-242v-7v0q1 -7 1 -15v0q1 -3 1 -7v-1q1 -2 1 -6v-1v0l1 -5l1 -4l1 -5v-1q1 -3 1 -5l1 -3v0l1 -4v-3l1 -3l2 -5v-2l4 -12v-1q3 -6 5 -12l1 -3
q19 -46 52 -83q-23 -27 -40 -58l-1 -2q-1 -3 -3 -5l-1 -3l-1 -3l-2 -4l-1 -2l-2 -4v-2l-2 -4q-1 -2 -2 -5l-1 -1q0 -2 -1 -5l-1 -2q-1 -2 -2 -5l-1 -3v-2l-1 -4l-2 -4v0l-1 -3v-1v-2l-1 -5l-1 -2l-2 -12l-1 -3q-1 -6 -2 -13v0q0 -3 -1 -7v0q0 -8 -1 -15v-7v-243v-7
q0 -4 1 -8v-7q1 -4 1 -7q1 -4 1 -8q1 -3 1 -7q1 -4 2 -7q0 -3 1 -7t2 -7q1 -4 2 -7q1 -4 2 -7t2 -7t3 -7q1 -3 2 -7q2 -3 3 -6t3 -7q1 -3 3 -6q1 -4 3 -7t3 -6l4 -6v0q1 -3 3 -6l4 -6q2 -4 4 -6l4 -6l4 -6t4 -5q3 -4 4 -6q3 -2 5 -5t5 -6q2 -2 4 -5l5 -5v0l5 -5q3 -2 5 -5
l6 -4l5 -5t5 -4q3 -3 6 -5t5 -4q4 -2 6 -4l6 -4l6 -4t6 -3l6 -4q3 -1 6 -3q4 -2 7 -3q3 -2 6 -3q4 -2 7 -3l6 -3q3 -1 7 -2q3 -2 6 -3q4 -1 7 -2t7 -2t7 -2t7 -2t7 -1q3 -1 7 -2q4 0 7 -1q4 0 7 -1q4 0 8 -1h7q4 -1 7 -1h8h400q120 0 205 86q86 87 86 208v227q0 112 -75 196
q75 84 75 196v227zM201 1145v1v1v1v2v1l1 1v1v1v2v1l1 1v1v1v2l1 1v1v1v1l1 1v2v1l1 1l1 2v0v1v1l1 1v2l1 1v1l1 1v1l1 1v1l1 1v1l1 1l1 1v1l1 1v1l1 1l1 1v1l1 1l1 1v1l1 1l1 1v1q6 7 13 13l1 1l1 1l2 1l1 1l1 1l1 1v0l1 1l1 1h1l1 1l1 1h1l1 1h1l1 1l1 1l2 1v0l3 1v0h1
l1 1h1l1 1l2 1h2l2 1l3 1l2 1h2l3 1h2l2 1h3l2 1h2h3h2h3h105v1h188v-1h105h2h3h2h3l2 -1h2l3 -1h2l2 -1h3l2 -1l2 -1l2 -1h3l2 -1l2 -1l2 -1v0l2 -1v0l2 -1l1 -1l1 -1h1l1 -1l2 -1l1 -1h1l1 -1l1 -1h1l1 -1l1 -1l1 -1l2 -1l1 -1v-1l2 -1l1 -1l1 -1l2 -1l1 -2l2 -2l1 -1
l2 -2l1 -2l2 -2l1 -2l1 -2l2 -2v-1l1 -1v-1l1 -1v0l1 -2v0l1 -1v-1v0l1 -2v0l1 -1v-1l1 -1v-1v-1l1 -1v-1l1 -1v-1v0l1 -2v0v-1l1 -1v-2v-1v0l1 -2v0v-2v0v-1l1 -2v0v-2v0l1 -2v-1v-2v0v-2v0l1 -3v0v-2v-3v-2v-105v0v-18v0v-104q0 -40 -28 -69q-29 -29 -69 -29h-102v0h-188
v0h-103q-40 0 -68 29t-28 69v104h-1v18h1v110zM588 619v-1h102q40 0 69 -28q28 -29 28 -69v-105v0v-18v0v-104v-3v-2v-2v-1l-1 -2v0v-2v-1v-2v0v-1l-1 -1v0v-2v-1v-1l-1 -1v-1v-1v0v-2l-1 -1v-1v-1l-1 -1v-1l-1 -1v-2v-1v0l-1 -1v-1l-1 -2v0l-1 -2v0l-1 -2v-1q-1 -1 -2 -4v0
q-3 -3 -5 -7v-1l-2 -1v-1q-2 -3 -5 -7h-1v-1l-1 -1h-1l-1 -1v-1l-1 -1l-1 -1l-1 -1h-1l-1 -1l-1 -1v-1h-1l-1 -1l-1 -1l-1 -1h-1l-1 -1l-1 -1h-1l-1 -1l-1 -1h-1l-1 -1l-1 -1h-1l-1 -1h-1l-1 -1l-1 -1h-1l-2 -1l-2 -1l-2 -1l-2 -1l-3 -1l-2 -1h-2l-2 -1l-3 -1h-2l-2 -1h-3
l-2 -1h-2h-3l-2 -1h-3h-2h-105v0h-188v0h-105h-3h-2l-3 1h-2h-2l-3 1h-2l-2 1h-3l-2 1l-2 1h-3l-2 1l-2 1l-2 1l-2 1l-2 1l-3 1l-2 1l-2 1l-2 1l-2 2l-2 1l-2 1l-1 2l-2 1l-2 2l-2 1l-1 1l-1 1v0l-1 1l-1 1l-1 1l-1 1l-1 1v0v0l-1 1l-1 1l-1 1v1l-1 1l-1 1l-1 1v1l-1 1l-1 1
l-1 1l-1 1v1l-1 1l-1 1v1l-1 1v1l-1 1l-1 1v1l-1 2v1l-1 1v1l-1 1v1l-4 10l-1 2v1v2v1l-1 1v1v1v1l-1 2v0v1v1v1v2l-1 1v1v1v1v2v1v109h-1v18h1v105q0 40 28 69q28 28 68 28h103v1h188z" />
    <glyph glyph-name="nine" unicode="9" 
d="M8 940h2q-1 -3 -1 -6v-1v0l-1 -2v0v-2v0v-7v-4v0v-2v0q0 -122 85 -208q84 -87 203 -87h331l-266 -473q-20 -35 -10 -75q10 -39 45 -59q34 -21 73 -10q38 11 58 46l407 715q19 34 29 71l1 4l2 5v2l2 6v1q1 6 2 11v1v2l1 1v4l1 4v3v0v3l1 2v2v6v1q1 3 1 6v2v6v1v7v203h-1v5
q1 2 1 4v1v1v0v3v1v5v4v0q0 122 -84 209q-85 86 -204 86h-390q-119 0 -203 -86q-85 -87 -85 -209v-203zM782 1119v-99v0v-104q0 -41 -28 -69q-28 -29 -68 -29h-102v0h-186v0h-102q-39 0 -68 29q-28 28 -28 69v0v2v1v7v0v3v0v1v1v1q0 3 -1 5v0v3h1v99v0v104q0 41 28 70
q29 28 68 28h102v1h186v-1h102q40 0 68 -28q28 -29 28 -70v0v-3v-3v-7v0v0v-2v0v-1l1 -1v-1q0 -3 1 -6h-2z" />
    <glyph glyph-name="colon" unicode=":" horiz-adv-x="400" 
d="M159 267q28 27 28 66v93q0 39 -28 66q-27 28 -66 28q-38 0 -66 -28q-27 -27 -27 -66v-93q0 -39 27 -66q28 -28 66 -28q39 0 66 28zM159 647q28 28 28 66v94q0 38 -28 66q-27 27 -66 27q-38 0 -66 -27q-27 -28 -27 -66v-94q0 -38 27 -66q28 -27 66 -27q39 0 66 27z" />
    <glyph glyph-name="semicolon" unicode=";" horiz-adv-x="400" 
d="M182 338v0v2v0q1 2 1 4v95l-1 3v2v2v3v2l-1 2v2l-1 3v2l-1 2l-1 2v2l-1 2l-1 2l-1 2v2l-1 2l-1 2l-1 2l-2 2l-1 2l-1 2l-1 2l-1 2l-2 2l-1 1l-1 2l-2 2l-1 1l-2 2l-1 1l-2 2l-1 1l-2 2l-2 1l-1 2l-2 1l-2 1l-2 2l-2 1l-1 1l-2 1l-2 1l-2 1l-2 1l-2 1l-2 1l-2 1l-2 1h-2
l-3 1l-2 1h-2l-2 1h-2l-3 1h-2l-2 1h-2h-3h-2h-2h-3h-2h-2h-3h-2h-2l-3 -1h-2v0l-2 -1h-2l-2 -1h-3l-2 -1l-2 -1h-2l-2 -1l-2 -1l-2 -1l-2 -1l-2 -1v0l-2 -1l-2 -1l-2 -1l-2 -1l-2 -1l-1 -2l-2 -1l-2 -1l-2 -2v0l-1 -1v0l-2 -2l-2 -1l-1 -2l-2 -1l-1 -2l-2 -1
q-22 -26 -22 -60v-91q0 -25 13 -46v-1q1 -1 2 -3v0q2 -4 5 -7l1 -1v-1h1v-1v0l2 -1v-1v0l1 -1l3 -3v0q3 -3 7 -6v0l1 -1l1 -1q11 -7 23 -12v0q7 -3 15 -4v0v0l-26 -47q-12 -19 -6 -40q6 -22 25 -33t41 -5q21 5 32 25l27 46l-1 1q16 15 16 37v87q0 4 -1 8v3zM28 151l-3 3z
M156 653q27 26 27 64v91q0 38 -27 65t-65 27q-37 0 -64 -27t-27 -65v-91q0 -38 27 -64q27 -27 64 -27q38 0 65 27z" />
    <glyph glyph-name="semicolon" unicode="&#x37e;" horiz-adv-x="400" 
d="M182 338v0v2v0q1 2 1 4v95l-1 3v2v2v3v2l-1 2v2l-1 3v2l-1 2l-1 2v2l-1 2l-1 2l-1 2v2l-1 2l-1 2l-1 2l-2 2l-1 2l-1 2l-1 2l-1 2l-2 2l-1 1l-1 2l-2 2l-1 1l-2 2l-1 1l-2 2l-1 1l-2 2l-2 1l-1 2l-2 1l-2 1l-2 2l-2 1l-1 1l-2 1l-2 1l-2 1l-2 1l-2 1l-2 1l-2 1l-2 1h-2
l-3 1l-2 1h-2l-2 1h-2l-3 1h-2l-2 1h-2h-3h-2h-2h-3h-2h-2h-3h-2h-2l-3 -1h-2v0l-2 -1h-2l-2 -1h-3l-2 -1l-2 -1h-2l-2 -1l-2 -1l-2 -1l-2 -1l-2 -1v0l-2 -1l-2 -1l-2 -1l-2 -1l-2 -1l-1 -2l-2 -1l-2 -1l-2 -2v0l-1 -1v0l-2 -2l-2 -1l-1 -2l-2 -1l-1 -2l-2 -1
q-22 -26 -22 -60v-91q0 -25 13 -46v-1q1 -1 2 -3v0q2 -4 5 -7l1 -1v-1h1v-1v0l2 -1v-1v0l1 -1l3 -3v0q3 -3 7 -6v0l1 -1l1 -1q11 -7 23 -12v0q7 -3 15 -4v0v0l-26 -47q-12 -19 -6 -40q6 -22 25 -33t41 -5q21 5 32 25l27 46l-1 1q16 15 16 37v87q0 4 -1 8v3zM28 151l-3 3z
M156 653q27 26 27 64v91q0 38 -27 65t-65 27q-37 0 -64 -27t-27 -65v-91q0 -38 27 -64q27 -27 64 -27q38 0 65 27z" />
    <glyph glyph-name="less" unicode="&#x3c;" 
d="M407 649l6 -3l44 -26l2 -1l39 -22l26 -16l26 -15l7 -3l34 -20l19 -11l10 -6l136 -78l4 -2l54 -32l17 -10l17 -10l12 -6l65 -38q38 -23 49 -65q12 -42 -10 -80t-65 -49q-42 -12 -80 10l-766 442l-1 1l-1 1h-1v0l-2 1l-2 1v1l-2 1h-1q-1 2 -3 3v0l-1 1l-1 1v0l-1 1v0l-2 2
h-1v0v1q-2 1 -4 3v0v0v0l-2 3h-1l-1 1l-1 1l-1 1l-1 2v0l-1 1l-2 4h-1l-1 2v1l-1 1l-1 1v0q-2 3 -3 6v0q-10 18 -12 39v1v0l-1 2q-4 32 10 61t42 46l766 442q38 22 81 10q43 -11 64 -49q22 -38 11 -81q-12 -41 -50 -64l-611 -353z" />
    <glyph glyph-name="equal" unicode="=" horiz-adv-x="1000" 
d="M777 607q-23 -23 -55 -23h-649q-33 1 -55 23q-23 22 -23 55q0 32 23 55t55 23h649q32 0 55 -23t23 -55q0 -33 -23 -55zM777 294q-23 -22 -55 -22h-649q-33 1 -55 23q-23 22 -23 55q0 32 23 55q23 22 55 23h649q32 0 55 -23t23 -55q0 -33 -23 -56z" />
    <glyph glyph-name="greater" unicode="&#x3e;" 
d="M665 704l-611 353q-38 23 -50 64q-11 43 11 81t64 49q43 12 81 -10l766 -442q28 -17 42 -46t10 -61v-2v0l-1 -1q-2 -21 -12 -39v0q-1 -3 -3 -6v0l-1 -1l-1 -1v-1l-1 -2v0q-2 -2 -3 -4l-1 -1v0l-1 -2l-1 -1l-1 -1l-1 -1h-1l-2 -3v0v0v0q-2 -2 -4 -3v-1v0h-1l-1 -2h-1
l-1 -1v0l-1 -1l-1 -1v0q-2 -1 -3 -3h-1l-2 -1v-1l-2 -1l-2 -1v0h-1l-1 -1l-1 -1l-766 -442q-38 -22 -80 -10q-43 11 -65 49t-10 80q11 42 49 65l65 38l12 6l17 10l17 10l54 32l4 2l136 78l10 6l19 11l34 20l7 3l26 15l26 16l39 22l2 1l44 26l6 3z" />
    <glyph glyph-name="question" unicode="?" 
d="M561 360q29 29 29 69v49v0v44v2v1v2q0 2 1 4v0v2v1q0 2 1 4v1v1v1l1 1v2v0l1 2v3v0l1 2v0l1 2q0 1 1 4v0l1 1v1l1 2v0l1 1v1l1 1v1l1 2l1 1v0v1q1 1 2 3l2 2v0l1 2v0l1 1v1h1l2 4h1l1 1v1q7 8 15 14h1l1 1v0l2 1v1l2 1v0l2 1v0l2 1v0v1h2v1l2 1q3 1 6 3h2v0l2 1h1l1 1
q2 0 3 1h1v0h1l1 1h1h1q2 1 4 1l2 1h6h15q121 0 208 87q86 86 86 207v226q0 121 -86 207q-87 86 -208 86h-397q-121 0 -207 -86t-86 -207v0v0v-5v-1q0 -40 29 -69t69 -29t69 29t29 69v3v3v0q0 40 28 69q29 28 69 28h104v1h190v-1h103q41 0 69 -28q29 -29 29 -69v-229v-2v-2
v0v-2v-1q-1 -2 -1 -4v0v-2v0l-1 -2v-1v-1l-1 -2v0v-2v-1v0l-1 -2v0v-2l-1 -1v-1l-1 -2v-1l-1 -2v0v-1l-1 -2l-1 -1v0l-1 -2v-1l-1 -1v-1v0v-1l-1 -1v0l-1 -2l-1 -2v0l-1 -2v0l-2 -1l-1 -2v0v-1v0l-1 -1l-1 -1l-1 -1v0l-1 -2q-5 -6 -10 -10v0q-2 -2 -4 -3v0q-1 -2 -3 -3
l-1 -1h-1l-1 -1l-1 -1v0l-2 -1l-1 -1v0q-6 -4 -13 -7v0l-2 -1v0h-2v-1h-2v0q-10 -4 -20 -5h-23h-7h-2q-7 -1 -13 -1v0q-4 -1 -7 -1v0q-1 0 -5 -1h-3l-4 -1h-3l-3 -1l-4 -1l-4 -1h-3l-3 -1l-4 -1l-3 -1l-4 -1l-3 -1l-4 -1l-4 -1l-2 -1l-5 -1l-2 -1q-1 -1 -5 -2l-2 -1l-4 -2
l-2 -1q-2 0 -5 -2h-2q-1 -1 -4 -3h-2l-4 -2l-3 -1l-4 -3l-1 -1q-3 -1 -6 -3v0q-3 -1 -6 -3h-1q-2 -2 -5 -4v0q-3 -2 -5 -3l-1 -1q-3 -2 -5 -3l-1 -1q-3 -2 -5 -3l-1 -1q-2 -1 -4 -3l-2 -1l-4 -4l-1 -1q-1 -1 -4 -3l-2 -1l-3 -3l-2 -2l-3 -3l-2 -2l-3 -3l-2 -1q-2 -2 -4 -5
q-2 -1 -4 -4l-1 -1l-4 -4l-1 -1l-3 -4l-2 -2q-2 -2 -3 -4l-1 -1l-3 -4l-2 -2l-3 -4l-1 -1l-2 -4l-2 -2l-3 -5v0q-2 -3 -4 -5v-1q-2 -3 -3 -5v-1q-2 -3 -4 -5v-1q-3 -5 -6 -12l-1 -1q-1 -2 -2 -5l-1 -1l-2 -5l-1 -2q-3 -6 -5 -11v-1q-3 -6 -5 -12v-3q-1 -3 -2 -4v-2
q-1 -3 -2 -5l-1 -3l-1 -4l-1 -4v-3l-1 -2l-2 -12l-1 -2v-5l-1 -1v-6l-1 -2q0 -6 -1 -13v-1v-7q-1 -3 -1 -7v0v0v-98q0 -40 29 -69t69 -29t69 29zM395 534v7v-7zM561 28q29 29 29 69v0q0 41 -29 70q-29 28 -69 28t-69 -28q-29 -29 -29 -70v0q0 -40 29 -69q29 -28 69 -28
t69 28z" />
    <glyph glyph-name="at" unicode="@" horiz-adv-x="1600" 
d="M196 398v637v0v104q0 41 29 69q29 29 69 29h768q40 0 69 -29q28 -28 28 -69v-585h1l1 -98q0 -14 -10 -24t-25 -10q-14 0 -24 10t-10 24l1 496q2 8 2 17q0 12 -3 23q-8 87 -74 147t-154 60h-370q-89 0 -155 -60q-65 -60 -74 -147q-2 -11 -2 -23q0 -40 28 -69
q29 -29 70 -29q40 0 69 29t29 69v1q0 14 10 24t25 10h40l-1 -2l146 1l145 -1v2h40q25 0 33 -25v-123q-18 3 -36 3h-367q-89 0 -155 -60q-65 -60 -74 -147q-2 -11 -2 -22v-8v-158v-7q0 -12 2 -23q9 -87 74 -147q66 -60 155 -60h367q73 0 133 42q59 -42 132 -42q95 0 162 67
q68 68 68 162v683q0 122 -87 208q-86 87 -207 87h-768q-121 0 -208 -87q-86 -86 -86 -208v-845q0 -122 86 -208q87 -86 208 -86h593v0h272v0h99q40 0 69 28q29 29 29 70q0 40 -29 69t-69 29h-562v0h-298v0h-104q-40 0 -69 29t-29 69v104v0zM531 422h-37q-15 0 -25 10t-10 24
v174q0 14 10 24t25 10h37h1l292 -1l-1 1h38q15 0 25 -10t10 -24v-174q0 -14 -10 -24t-25 -10h-37v1h-146h-147v-1z" />
    <glyph glyph-name="A" unicode="A" 
d="M199 342h593v-244q0 -40 29 -69t70 -29q40 0 69 29t29 69v675q-1 31 -18 55l-392 560q-10 17 -27 29q-25 17 -56 17h-1q-31 0 -56 -17q-17 -12 -27 -29l-392 -560q-18 -26 -18 -57v-673q0 -40 29 -69t70 -29q40 0 69 29t29 69v244zM199 539v202l297 424l296 -424v-202
h-593z" />
    <glyph glyph-name="B" unicode="B" 
d="M591 1237v0h104q40 0 69 -29t29 -69v-104v0v-18v0v-104q0 -41 -29 -69q-29 -29 -69 -29h-104v0h-389v422h389zM972 617v2l-2 4l-1 4l-1 3h-1l-1 3l-1 4l-1 3l-2 3l-1 3v0q-2 3 -3 5v1q-18 35 -45 65q76 84 76 196v226q0 121 -87 208q-86 86 -207 86h-594q-40 0 -69 -29
t-29 -69v-1237q0 -40 29 -69t69 -29h594q121 0 207 87q87 86 87 207v234v1q0 3 -1 6v1v7v1q0 4 -1 6v1v6l-1 2v5l-1 3l-1 4v3l-1 5v2q-1 3 -2 5v2l-1 5l-1 2q0 2 -1 5l-1 1q0 3 -1 5l-1 2l-1 4v0q-1 3 -2 5zM591 619v-1h104q40 0 69 -28q29 -29 29 -69v-104v0v-19v0v-104
q0 -40 -29 -69t-69 -29h-104v0h-389v423h389z" />
    <glyph glyph-name="C" unicode="C" 
d="M327 196q-58 0 -94 37q-37 37 -37 94v709v0v104q0 41 29 69q29 29 69 29h104v0h190v0h105q40 0 69 -29q28 -28 28 -69h1q-1 -3 -1 -6q0 -40 29 -69t70 -29q40 0 69 29t29 69v6v0q0 122 -87 208q-86 86 -207 86h-399q-121 0 -208 -86q-86 -86 -86 -208v-846
q0 -121 87 -207q86 -87 207 -87h399q121 0 207 87q87 86 87 207v1v5q0 41 -29 70t-69 29q-41 0 -70 -29t-29 -70q0 -2 1 -5l-1 -1q0 -40 -28 -69q-29 -28 -69 -28h-105v-1h-261z" />
    <glyph glyph-name="D" unicode="D" 
d="M664 197q57 0 94 36q36 37 36 94v710v0v104q0 41 -29 69q-28 29 -69 29h-104v1h-390v-1043h462zM991 295q0 -122 -87 -208q-86 -87 -208 -87h-595q-40 0 -69 29t-29 70v1239q0 40 29 69t69 29h595q122 0 208 -87q87 -86 87 -208v-846z" />
    <glyph glyph-name="E" unicode="E" 
d="M693 0q122 0 208 87q86 86 86 208v0v6q0 40 -28 69q-29 29 -70 29q-40 0 -69 -29t-29 -69v-6v0q0 -41 -29 -69q-29 -29 -69 -29h-494v419h433q40 0 69 29q29 28 29 69t-29 69q-29 29 -69 29h-433v427h498h1h3l1 -1v0h1h1v0h2h1v0h1v0l1 -1v0h1h1h1v0h1v0h1v0l1 -1v0h1v0
h1q7 -2 13 -4v0l1 -1h1v0l1 -1l2 -1v0h1h1v-1h1h1v-1h1v0l1 -1v0h1l1 -1h1l2 -2h1v0l1 -1l1 -1v0h1l4 -4l1 -1v0q1 0 3 -2v0l1 -1v0h1v-1l1 -1l1 -1q29 -29 29 -69v0v-3v-3q0 -41 29 -69q29 -29 69 -29q41 0 70 29q28 28 28 69v1v5v0v0v8v7v7v1q-1 3 -1 7v0q-1 9 -3 19v3v0
q-1 4 -1 7v0q-1 2 -2 5v2q0 1 -1 6l-1 1q0 1 -1 4l-1 3v0q-1 3 -2 7q-3 10 -7 19v1l-2 5l-1 2l-1 4l-1 3q-1 1 -2 3l-1 3l-2 4l-2 2l-1 4l-2 3l-2 4l-1 2l-3 3l-1 3l-2 3l-2 3l-2 3l-2 3q0 1 -3 4l-1 1q-1 2 -3 5l-1 1q-1 2 -4 5v1l-13 15l-1 1q-4 5 -9 10v0q-5 5 -10 9v1
q-5 4 -10 9h-1q-2 2 -5 4v1q-3 1 -5 3l-1 1q-25 19 -54 32v0q-4 2 -7 3v0q-47 21 -98 24v0h-14h-599q-40 0 -69 -28q-29 -29 -29 -70v-1238q0 -41 29 -70t69 -29h595z" />
    <glyph glyph-name="F" unicode="F" 
d="M98 1434q-40 0 -69 -28q-29 -29 -29 -70v-1238q0 -40 29 -69t69 -29q41 0 70 29q28 29 28 69v46h3v471h432q41 0 70 29t29 69q0 41 -29 70t-70 29h-432v426h494q40 0 69 -29q28 -28 28 -69h1q-1 -3 -1 -6q0 -40 29 -69t70 -29q40 0 69 29t29 69v6v0q0 122 -87 208
q-86 86 -207 86h-595z" />
    <glyph glyph-name="G" unicode="G" 
d="M327 196q-58 0 -94 37q-37 37 -37 94v709v0v104q0 41 29 69q29 29 69 29h104v0h190v0h105q40 0 69 -29q28 -28 28 -69h1l-1 -3v-3q0 -40 29 -69t70 -29v0q40 0 69 29t29 69v2v4v0v0q0 122 -87 208q-86 86 -207 86h-399q-121 0 -208 -86q-86 -86 -86 -208v-846
q0 -121 87 -207q86 -87 207 -87h399q121 0 207 87q87 86 87 207v1v0v3v418v2l-1 3v2v3v2l-1 3v2l-1 3v2l-1 2l-1 3v2l-1 2l-1 2l-1 3l-1 2l-1 2l-1 2l-1 2l-1 2l-1 2l-2 2l-1 2l-1 2l-2 2l-1 2l-2 2l-1 2l-2 1l-1 2l-2 2l-2 1l-1 2l-2 2l-2 1l-2 2l-2 1l-2 1l-2 2l-2 1l-2 1
l-2 2l-2 1l-2 1l-2 1l-2 1l-2 1l-3 1l-2 1h-2l-2 1l-3 1l-2 1h-2l-3 1h-2l-3 1h-2h-2h-3l-2 1h-3h-347q-40 0 -69 -29t-29 -70q0 -40 29 -69t69 -29h246v-315q0 -2 1 -5l-1 -1q0 -40 -28 -69q-29 -28 -69 -28h-105v-1h-261z" />
    <glyph glyph-name="H" unicode="H" 
d="M197 99q0 -41 -29 -70t-70 -29q-40 0 -69 29t-29 70v1238q0 41 29 70q29 28 69 28q41 0 70 -29t29 -69v-525h594v525q0 41 29 70q29 28 69 28q41 0 70 -29t29 -69v-1238q0 -41 -29 -70t-70 -29q-40 0 -69 29t-29 70v517h-594v-517z" />
    <glyph glyph-name="I" unicode="I" horiz-adv-x="800" 
d="M172 197v1040h-74q-40 0 -69 29t-29 69q0 41 29 70t69 29h344q41 0 70 -29t29 -70q0 -40 -29 -69t-70 -29h-74v-1040h74q41 0 70 -29t29 -70q0 -40 -29 -69t-70 -29h-344q-40 0 -69 29t-29 69q0 41 29 70t69 29h74z" />
    <glyph glyph-name="J" unicode="J" 
d="M987 294q0 -121 -87 -207q-86 -87 -207 -87h-399q-121 0 -208 87q-86 86 -86 207v1v4v1q0 41 29 70t69 29q41 0 70 -29q28 -29 28 -70v-3v-2v-1q0 -40 29 -69q29 -28 69 -28h104v-1h190v1h105q40 0 69 28q28 29 28 69v105h1v839h-170v0h-4h-1h-112v-87q0 -41 -28 -70
q-29 -28 -70 -28q-40 0 -69 28q-29 29 -29 70v185q0 41 29 70q29 28 69 28h483q40 0 69 -28q29 -29 29 -70v-1042z" />
    <glyph glyph-name="K" unicode="K" 
d="M197 98q0 -40 -29 -69t-70 -29q-40 0 -69 29t-29 69v1239q0 40 29 69t69 29q41 0 70 -29t29 -69v-521h264l183 127l147 103v291q0 40 29 69t69 29q41 0 70 -29q28 -29 28 -69v-350q0 -6 -1 -12v-2v0l-1 -2v0v-1v-1l-1 -1v-1v-1v-1l-1 -1v-1v-1l-1 -1q-1 -4 -2 -7l-1 -2
l-1 -1v-1v-1l-1 -1q-1 -1 -2 -3l-1 -2v0l-1 -2v0v0l-1 -2v0l-1 -1v-1h-1v-1l-1 -1v0l-2 -3v0l-1 -1v-1q-5 -6 -11 -11l-1 -1h-1l-1 -2l-8 -6h-1l-1 -1l-2 -1l-1 -1h-1v0l-2 -1v0l-1 -1l-1 -1v0h-2v-1h-1h-1v-1h-1q-1 -1 -3 -1l-18 -12l-244 -172l262 -183q61 -25 61 -91
v-345q0 -40 -28 -69q-29 -29 -70 -29q-40 0 -69 29t-29 69v290l-330 231h-264v-521z" />
    <glyph glyph-name="L" unicode="L" 
d="M0 98q0 -40 29 -69t69 -29h595q121 0 207 87q87 86 87 207v1v4v1q0 41 -29 70t-69 29q-41 0 -70 -29t-29 -70v-3q0 -1 1 -2l-1 -1q0 -40 -28 -69q-29 -28 -69 -28h-105v-1h-392v1140q0 41 -29 69q-28 29 -69 29q-40 0 -69 -28q-29 -29 -29 -70v-1238z" />
    <glyph glyph-name="M" unicode="M" 
d="M196 98q0 -40 -28 -69q-29 -29 -70 -29q-40 0 -69 29t-29 69v1243v1v2v0v2l1 1v1v0q2 20 12 37v0l1 1l1 2v0v0v1v0h1v1l1 1v0v0q4 6 9 11v1l3 3v0l2 2l2 2h1v1h1v1h1v1h1v0h1v1h1v0l1 1v0v0v0l1 1v0l1 1h1v1h1h1v1l1 1h1l1 1h1v0l1 1q1 0 2 1h1v0v1h2v1v0h1h1q2 1 3 2v0
q3 1 5 2h1v0v0h1q5 2 11 3h1v1h3v0v0h1h1l1 1h1h1h2h1h1h2h1h6h6v0h2v0h3v0v0l1 -1v0h1v0h2v0v0h1v0l1 -1v0h1h1h1h1q2 -1 4 -1l2 -1h1v0l1 -1v0h2l2 -1v0h1l1 -1h1v0l2 -1v0l4 -2v0h1l1 -1v0l1 -1h1v0h1l2 -1l2 -2v0q2 -1 3 -2l1 -1h1l1 -1v0q1 -1 3 -2v-1l2 -1v0v0l2 -2v0
l2 -1l1 -1l1 -1v0v0l1 -2h1q3 -4 6 -7v0v-1l1 -1v0l2 -2l314 -450l315 450l1 1v1h1q2 3 4 5v1v0l1 1h1v1v0l1 1h1v1l2 2v0h1v1h1v1l1 1h1l1 1l1 1l1 1h1q2 2 5 4l1 1q12 8 25 12l3 1v0h1v0v0l2 1h1h1v0v0q3 1 6 1q1 0 4 1v0h4v0h7h5h1h2v0h1h2v0h2q7 -1 14 -3v0l1 -1h1v0h2
v-1h2v0l2 -1v0v0h1l1 -1v0h1h1l1 -1h1l1 -1v0v0h1l1 -1v0l2 -1v0h1l1 -1v0h1v0q1 -1 3 -2v0l1 -1v0v0l1 -1h1v0v0l1 -1h1l1 -1v0l1 -1v0l1 -1l2 -1l1 -1v0l1 -1l1 -1v0l1 -1v0h1l1 -1l2 -2v0q2 -2 4 -5h1v-1v0l1 -1l1 -1v0v-1v0l2 -2v0l1 -1v0v0v-1l6 -8v-1l1 -1v-1l1 -1v0
v-1l1 -1v-1l1 -1v0v0v-1v0v0l1 -1v0v-1l1 -1v-1v0v-1v-1h1v0v-1q1 -2 1 -3l1 -2v-1v0v0v0v-1l1 -1v0v-3v0v0v-1l1 -1v-1v0v-1v-1l1 -2v0v-1v-1v-1v-2v0v-2l1 -2v-1v-3v-1v-1239q0 -40 -29 -69t-69 -29q-41 0 -70 29t-29 69v927l-120 -171l-78 -113v-136q0 -40 -29 -69
t-70 -29q-40 0 -69 29t-29 69v136l-124 177l-75 107v-927z" />
    <glyph glyph-name="N" unicode="N" 
d="M196 98q0 -40 -29 -69q-28 -29 -69 -29q-40 0 -69 29t-29 69v1237q0 41 29 70q29 28 69 28h4h2h2v0h2v0h1v0h2v-1h1h1v0h1v0h1v0h1v0l1 -1v0h1q64 14 101 -39q-9 12 571 -820v763q0 41 29 70q28 28 69 28q40 0 69 -29q29 -28 29 -69v-1061q2 -15 0 -30v-146
q0 -40 -29 -69t-69 -29t-69 29t-29 69v131l-594 852v-983z" />
    <glyph glyph-name="O" unicode="O" 
d="M326 196q-57 0 -94 37q-36 36 -36 94v707v0v104q0 40 29 69q28 28 69 28h103v1h190v-1h104q40 0 69 -28q29 -29 29 -69v0v-3v-6v-4v-808h1q0 -3 -1 -5v-1v-1v-2v0v-2v-1v-11q0 -40 -29 -69t-69 -29h-104v0h-261zM984 294v4v6v2v1v1v0q0 4 -1 8v1h2v821q0 121 -87 207
q-86 86 -207 86h-397q-122 0 -208 -86t-86 -207v-844q0 -121 86 -207q87 -87 208 -87h397q121 0 207 87q87 86 87 207h-1v0z" />
    <glyph glyph-name="P" unicode="P" 
d="M199 1238v-422h389v0h105q40 0 69 29q28 28 28 69v104h1v18h-1v104q0 41 -28 69q-29 29 -69 29h-105v0h-389zM199 619v-475h-3v-45q0 -41 -28 -70q-29 -29 -70 -29q-40 0 -69 29t-29 70v1237q0 41 29 70t69 29h595q121 0 207 -87q87 -86 87 -208v-226q0 -122 -87 -208
q-86 -87 -207 -87h-494z" />
    <glyph glyph-name="Q" unicode="Q" 
d="M326 196q-57 0 -94 37q-36 36 -36 94v707v0v104q0 40 29 69q28 28 69 28h104v1h189v-1h104q40 0 69 -28q29 -29 29 -69v0v-3v-1v-5v0v-4v0v-790l-76 76q-29 28 -69 28q-41 0 -70 -28q-28 -29 -28 -70q0 -40 28 -69l76 -76h-63v0h-261zM956 168q29 60 29 126h-1v0v4v6v2v1
v1v0q0 4 -1 8v1h2v821q0 121 -87 207q-86 86 -207 86h-397q-122 0 -208 -86t-86 -207v-844q0 -121 86 -207q87 -87 208 -87h397q66 0 126 29v0q29 -29 70 -29q40 0 69 29t29 69q0 41 -29 70v0z" />
    <glyph glyph-name="R" unicode="R" 
d="M206 1238v-422h389v0h105q40 0 69 29q28 28 28 69v104h1v18h-1v104q0 41 -28 69q-29 29 -69 29h-105v0h-389zM962 795l-1 -1l-1 -3l-2 -4l-2 -3l-1 -2l-2 -4l-1 -2l-2 -5h-1l-2 -5l-1 -2l-12 -18l-1 -2q-1 0 -3 -3l-1 -2l-2 -3l-2 -2l-3 -3l-1 -2l-3 -3l-2 -3l-2 -3
l-1 -1q-14 -16 -30 -29l-1 -1l-10 -8v0q-14 -11 -30 -20l-1 -1q-5 -3 -11 -6q-17 -9 -34 -16v0q-24 -9 -50 -14l212 -212q33 -33 28 -79v-2v0l1 -2v0v-3v-1v-226q0 -41 -29 -70t-69 -29q-41 0 -70 29t-29 70v203l-317 317h-274v-520q0 -41 -29 -70t-70 -29q-42 0 -71 29
t-29 70v1237q0 41 29 70t69 29h595q121 0 207 -87q87 -86 87 -208v-226v-7v-3l-1 -5v-3v-3v-3l-1 -5v-3v-3l-1 -4v-3l-1 -4q0 -2 -1 -5v-1q0 -3 -1 -6l-1 -3l-1 -5v-2q-1 -2 -1 -5l-1 -2l-1 -5l-1 -1l-1 -5l-1 -3l-1 -4l-1 -2l-2 -6v0q-1 -3 -3 -6v-1l-1 -3q-2 -4 -3 -8z
" />
    <glyph glyph-name="S" unicode="S" 
d="M168 353q28 -29 28 -69v-87h392v0h105q40 0 69 29q28 28 28 69v104h1v18h-1v104q0 41 -28 69q-29 29 -69 29h-105v0h-190v0h-104q-121 0 -208 87q-86 86 -86 208v226q0 122 86 208q87 87 208 87h597l3 -1h2h3h2l2 -1h3q5 -1 9 -2l3 -1q4 -1 9 -3l8 -4l2 -2l2 -1v0l2 -1v0
l2 -1l2 -2v0l2 -1l1 -1h1v0l2 -2v0q2 -1 3 -3h1l1 -2v0l2 -1q1 -2 3 -4v0l2 -1l6 -8v0l1 -2q14 -21 16 -47h1v-2v-1v-2v-188q0 -40 -29 -69t-69 -29q-41 0 -70 29t-29 69v87h-392v0h-104q-40 0 -69 -29q-29 -28 -29 -69v-104v0v-18v0v-104q0 -41 29 -69q29 -29 69 -29h104v0
h73v-1h222q121 0 207 -86q87 -86 87 -208v-226q0 -122 -87 -208q-86 -87 -207 -87l-600 1h-2h-3h-2l-3 1h-2l-10 2v0l-2 1v0q-4 1 -9 3v0l-8 4l-2 1h-1l-2 2l-2 1v0l-2 1v0l-1 2h-1l-1 1l-2 1v0l-2 2q-10 8 -18 19v0l-1 2q-15 21 -17 47v0v2v1v2v188q0 40 29 69t69 29
q41 0 70 -29z" />
    <glyph glyph-name="T" unicode="T" 
d="M819 1082q-29 29 -29 69v87h-197v-1139q0 -41 -29 -70q-30 -29 -71 -29t-70 29t-29 70v1139h-198v-87q0 -40 -28 -69q-29 -29 -70 -29q-40 0 -69 29t-29 69v188v2v3v0q2 26 17 47l1 2v0q8 11 18 19l2 2v0l2 1l1 1h1l1 2l2 1v0l2 1v0l3 2l1 1h1l8 4t9 3l2 1l10 2h2l3 1h2
h3h2l3 1h795l3 -1h2h3h2v0l2 -1h3q5 -1 9 -2l3 -1v0q4 -1 9 -3l8 -4v0l2 -1v-1l2 -1v0l2 -1v0l2 -1v0l2 -2v0l2 -1l2 -1v0l2 -2q10 -8 17 -19h1l1 -2q14 -21 16 -47v0l1 -2v-3v-2v-186q0 -40 -29 -69t-69 -29q-41 0 -70 29z" />
    <glyph glyph-name="U" unicode="U" 
d="M327 197q-58 0 -94 36q-37 37 -37 94v72v0v493v0v442q0 40 -28 68q-29 29 -70 29q-40 0 -69 -29q-29 -28 -29 -68v-1039q0 -122 87 -208q86 -87 207 -87h399q121 0 207 87q87 86 87 208v0v0v4v6v2v1l-1 1v0q0 4 -1 8v0h2v575v0v442q0 40 -29 68q-29 29 -69 29v0
q-41 0 -69 -29q-29 -28 -29 -68v-1017h1q-1 -2 -1 -5v0v-1v-1v0v-3v0l-1 -1v-3v-6q0 -1 1 -2h-1q0 -41 -28 -69q-29 -29 -69 -29h-105v0h-261z" />
    <glyph glyph-name="V" unicode="V" 
d="M29 1402q-29 -28 -29 -69v-676v-1v-1v-1v-2l1 -1v-2v0v-1v0v-1v-1v0v-1l1 -1v0v-2v0q0 -1 1 -3v0v0v-1v-1v-1q1 -3 2 -7v0l1 -2v0l2 -4v-1v-1h1v-1l1 -1v0v-1v-1h1v-1v0v-1l1 -1v-1h1v-1v0h1v-1v-1l1 -1l1 -1v-1h1v-1l1 -1l390 -558h1l2 -4v0l1 -1v-1v0l1 -1v0v0l1 -1v0
q1 -2 3 -3v-1l1 -1v0l1 -1v0v-1h1v-1v0l1 -1h1v0v-1h1v0l1 -1l1 -1v0l1 -1v0v0l2 -2v0v0h1v-1h1v-1l2 -1v0v0l1 -1v0h1v0v-1h1v-1h1l1 -1l1 -1l2 -1v0v0l1 -1h1l1 -1h1v0v0l1 -1h1l1 -1h1l1 -1v0h1l1 -1h1l1 -1v0v0h1l1 -1v0h2l1 -1h1h1v0l1 -1h1v0h1l1 -1v0h1h1
q12 -4 25 -4l5 1h4v0q10 1 20 3v0v1h1h1h1v0l1 1v0v0h1l2 1h1h1q2 1 5 2v1h1h1v1h1l1 1v0h1l1 1h1l1 1v0h1l1 1l1 1h1v1h1l1 1v0l2 2v0h1h1v1v0l2 1v1h1l1 1v0v0l2 2v0v0l1 1v0h1v1v0h1v1h1v0v1h1v1v0l1 1h1v1l1 1v0l1 1v0v1h1l1 1v0l1 2v0v1h1v0l1 1v0l1 2v0v1h1v1v0l1 2h1
l390 558l1 1l1 1v0v1l1 1l1 1v1l1 1v0v0v1h1v1l1 1v1v1h1v1v1l1 1q1 2 1 3l1 1v1v1l1 1v1l1 1v0v0v1v1l1 1q0 1 1 4v1v0v2v0q1 3 2 7v1v0q1 5 1 9v677q0 41 -29 69q-28 29 -69 29q-40 0 -69 -29q-29 -28 -29 -69v-641l-173 -248l-123 -175l-296 423v641q0 41 -29 69
q-29 29 -69 29t-69 -29z" />
    <glyph glyph-name="W" unicode="W" 
d="M196 1336q0 41 -28 70q-29 29 -70 29q-40 0 -69 -29t-29 -70v-1237q0 -26 13 -49v0v-1q11 -18 29 -31q23 -16 51 -17h1l4 -1q3 0 6 1h2h2v0h3q43 6 68 41l314 450l315 -450q21 -30 58 -39v0h1v0q2 -1 4 -1h1q5 -1 9 -1v0q4 -1 8 -1l4 1h1q28 1 51 17q22 15 33 40
q9 19 9 41v1237q0 41 -29 70t-69 29q-41 0 -70 -29t-29 -70v-926l-209 299v120q0 41 -29 70t-69 29q-41 0 -69 -29q-29 -29 -29 -70v-150l-189 -269v926z" />
    <glyph glyph-name="X" unicode="X" 
d="M822 29q-29 29 -29 70v204l-111 111l-187 187l-187 -187l-111 -111v-204q0 -41 -29 -70t-69 -29q-41 0 -70 29t-29 70v228v1l1 3v0v2q-1 11 0 22v0v0v1q1 4 1 8l1 1v1v1v1v0l1 1v2v0l1 2v0v1v1l1 1v1q1 4 3 7v1v0v0l1 2v1l1 1l1 1q2 4 4 7v1v0l1 1l1 1l1 1l1 1v1l1 1v0v0
l1 1l1 2v0l1 1v0v0l1 2v0h1l1 1v0l1 1l1 1l304 304l-304 304q-33 33 -28 80v1v2l-1 2v1v229q0 40 29 69t70 29q40 0 69 -29t29 -69v-204l298 -298l298 298v204q0 40 29 69t69 29q41 0 70 -29t29 -69v-225v0v-5l-1 -2v0v-1v-1v-1v0q1 -11 0 -21v0q0 -6 -2 -11v0v-1v-1v-1
l-2 -6l-1 -1v0q-1 -4 -3 -8v-1v-1v0l-1 -2v0v0l-1 -2v0h-1l-4 -8v0l-1 -2v0l-1 -1l-1 -1v0l-1 -1l-1 -1v0v-1l-1 -1v0l-1 -1l-1 -1v0q-2 -3 -5 -6l-304 -304l304 -304l1 -1l1 -1l1 -1h1v0l1 -2v0v0l1 -1v0l1 -2l1 -1v0v0l1 -1v-1l1 -1l1 -1l1 -1l1 -1v0v-1q2 -3 4 -7l1 -1
l1 -1v-1v0l1 -2v0v0v-1q2 -3 3 -7v-1l1 -1v-1v-1l1 -2v0v-2l1 -1v0v-1v-1v-1l1 -1q0 -4 1 -8v-1v0v0q1 -11 0 -22v-2v0l1 -3v-4v-1v-224q0 -41 -29 -70t-70 -29q-40 0 -69 29z" />
    <glyph glyph-name="Y" unicode="Y" 
d="M822 1405q-29 -28 -29 -69v-204l-298 -298l-186 187l-112 111v204q0 41 -28 69q-29 29 -70 29t-70 -29q-28 -28 -28 -69v-224v-1v-5v-2v0v-3q-1 -10 0 -21v0v-1v0q1 -5 2 -8v-1v-1v-1l1 -1v0v-2v-1v0l1 -3v0l1 -1v-2v0q2 -4 3 -7v-1l1 -1v-1h1v-1v0v-1l1 -1q2 -4 4 -7
l1 -1l1 -1v-1v0l1 -1l1 -2l1 -1v-1h1q1 -2 3 -4l1 -1v0v0l1 -1v-1l1 -1l1 -1l368 -367v-555q0 -41 29 -70t69 -29q41 0 70 29t29 70v555l367 367l1 1l1 1v1l1 1h1v0l1 1q1 2 3 4v0l1 1l1 1l1 2l1 1v0v1l1 1v1q3 3 5 7v1l1 1v0v1v0l1 1v1l1 1q1 3 2 7l1 1v1v1h1v3v0l1 1v2v0
v1l1 1v1v1q1 3 1 8v0l1 1v0q1 11 0 21v3v0v2v2v228q0 41 -29 69q-29 29 -69 29q-41 0 -70 -29z" />
    <glyph glyph-name="Z" unicode="Z" 
d="M167 1079q28 29 28 69v87l593 1v-56l-760 -792q-31 -31 -28 -75v-215q0 -40 28 -69q29 -29 70 -29l786 2q41 0 70 28q29 29 30 70v185q0 40 -29 69t-69 29t-70 -30q-28 -29 -28 -70v-87h-593v83l379 395l381 398q32 31 29 76v187q-1 41 -29 69q-29 29 -69 29l-788 -2
q-41 0 -69 -29q-29 -28 -29 -68v-186q0 -40 28 -69q29 -29 70 -29q40 0 69 29z" />
    <glyph glyph-name="bracketleft" unicode="[" horiz-adv-x="700" 
d="M396 -155q42 0 69 27q26 26 26 69t-26 69q-27 27 -69 27h-204v1402h204q42 0 69 26q26 27 26 69q0 43 -26 70q-27 26 -69 26h-300q-43 0 -69 -26q-27 -27 -27 -70v-1593q0 -43 27 -69q26 -27 69 -27h300z" />
    <glyph glyph-name="backslash" unicode="\" 
d="M188 1180l760 -792q30 -31 28 -76v-214q0 -41 -28 -70q-28 -28 -67 -28q-38 0 -66 28q-28 29 -28 70v180l-379 395l-381 397q-31 32 -27 77v189v2v1v2v0q2 26 16 47l1 2v0l6 8l1 1v0q2 2 3 4l2 1l1 2h1q1 2 3 3v0l2 1v1l1 1l2 1v0l2 2v0l2 1v0l2 1l2 1v0l2 2v0l8 4v0l2 1
q2 0 5 1l2 1v0l2 1v0h2q2 1 5 1l2 1h2l3 1h2h2h3h9h3h2h3l2 -1h2v0q5 -1 9 -2l3 -1l2 -1q2 0 4 -1v0l2 -1l8 -4v0v0l2 -2l2 -1v0l2 -1l2 -1v0l2 -2l4 -2v-1q23 -19 32 -49v-1v0l1 -2l2 -12v-2v-1v-2v0l1 -3v-2v-156z" />
    <glyph glyph-name="bracketright" unicode="]" horiz-adv-x="700" 
d="M396 -155q42 0 69 27q26 26 26 69v1593q0 43 -26 70q-27 26 -69 26h-300q-43 0 -69 -26q-27 -27 -27 -70q0 -42 27 -69q26 -26 69 -26h204v-1402h-204q-43 0 -69 -27q-27 -26 -27 -69t27 -69q26 -27 69 -27h300z" />
    <glyph glyph-name="asciicircum" unicode="^" horiz-adv-x="1014" 
 />
    <glyph glyph-name="underscore" unicode="_" 
d="M939 -26q-27 26 -66 26h-779q-39 -1 -66 -27q-28 -25 -28 -62t28 -63q27 -26 65 -27h780q39 0 66 27q28 26 28 63q0 36 -28 63z" />
    <glyph glyph-name="grave" unicode="`" horiz-adv-x="1024" 
d="M673 1079h-69l-330 202q-31 20 -46.5 40t-15.5 42q0 31 20.5 51t53.5 20q20 0 40.5 -12t55.5 -47z" />
    <glyph glyph-name="a" unicode="a" 
d="M199 342h593v-244q0 -40 29 -69t70 -29q40 0 69 29t29 69v675q-1 31 -18 55l-392 560q-10 17 -27 29q-25 17 -56 17h-1q-31 0 -56 -17q-17 -12 -27 -29l-392 -560q-18 -26 -18 -57v-673q0 -40 29 -69t70 -29q40 0 69 29t29 69v244zM199 539v202l297 424l296 -424v-202
h-593z" />
    <glyph glyph-name="b" unicode="b" 
d="M591 1237v0h104q40 0 69 -29t29 -69v-104v0v-18v0v-104q0 -41 -29 -69q-29 -29 -69 -29h-104v0h-389v422h389zM972 617v2l-2 4l-1 4l-1 3h-1l-1 3l-1 4l-1 3l-2 3l-1 3v0q-2 3 -3 5v1q-18 35 -45 65q76 84 76 196v226q0 121 -87 208q-86 86 -207 86h-594q-40 0 -69 -29
t-29 -69v-1237q0 -40 29 -69t69 -29h594q121 0 207 87q87 86 87 207v234v1q0 3 -1 6v1v7v1q0 4 -1 6v1v6l-1 2v5l-1 3l-1 4v3l-1 5v2q-1 3 -2 5v2l-1 5l-1 2q0 2 -1 5l-1 1q0 3 -1 5l-1 2l-1 4v0q-1 3 -2 5zM591 619v-1h104q40 0 69 -28q29 -29 29 -69v-104v0v-19v0v-104
q0 -40 -29 -69t-69 -29h-104v0h-389v423h389z" />
    <glyph glyph-name="c" unicode="c" 
d="M327 196q-58 0 -94 37q-37 37 -37 94v709v0v104q0 41 29 69q29 29 69 29h104v0h190v0h105q40 0 69 -29q28 -28 28 -69h1q-1 -3 -1 -6q0 -40 29 -69t70 -29q40 0 69 29t29 69v6v0q0 122 -87 208q-86 86 -207 86h-399q-121 0 -208 -86q-86 -86 -86 -208v-846
q0 -121 87 -207q86 -87 207 -87h399q121 0 207 87q87 86 87 207v1v5q0 41 -29 70t-69 29q-41 0 -70 -29t-29 -70q0 -2 1 -5l-1 -1q0 -40 -28 -69q-29 -28 -69 -28h-105v-1h-261z" />
    <glyph glyph-name="d" unicode="d" 
d="M664 197q57 0 94 36q36 37 36 94v710v0v104q0 41 -29 69q-28 29 -69 29h-104v1h-390v-1043h462zM991 295q0 -122 -87 -208q-86 -87 -208 -87h-595q-40 0 -69 29t-29 70v1239q0 40 29 69t69 29h595q122 0 208 -87q87 -86 87 -208v-846z" />
    <glyph glyph-name="e" unicode="e" 
d="M693 0q122 0 208 87q86 86 86 208v0v6q0 40 -28 69q-29 29 -70 29q-40 0 -69 -29t-29 -69v-6v0q0 -41 -29 -69q-29 -29 -69 -29h-494v419h433q40 0 69 29q29 28 29 69t-29 69q-29 29 -69 29h-433v427h498h1h3l1 -1v0h1h1v0h2h1v0h1v0l1 -1v0h1h1h1v0h1v0h1v0l1 -1v0h1v0
h1q7 -2 13 -4v0l1 -1h1v0l1 -1l2 -1v0h1h1v-1h1h1v-1h1v0l1 -1v0h1l1 -1h1l2 -2h1v0l1 -1l1 -1v0h1l4 -4l1 -1v0q1 0 3 -2v0l1 -1v0h1v-1l1 -1l1 -1q29 -29 29 -69v0v-3v-3q0 -41 29 -69q29 -29 69 -29q41 0 70 29q28 28 28 69v1v5v0v0v8v7v7v1q-1 3 -1 7v0q-1 9 -3 19v3v0
q-1 4 -1 7v0q-1 2 -2 5v2q0 1 -1 6l-1 1q0 1 -1 4l-1 3v0q-1 3 -2 7q-3 10 -7 19v1l-2 5l-1 2l-1 4l-1 3q-1 1 -2 3l-1 3l-2 4l-2 2l-1 4l-2 3l-2 4l-1 2l-3 3l-1 3l-2 3l-2 3l-2 3l-2 3q0 1 -3 4l-1 1q-1 2 -3 5l-1 1q-1 2 -4 5v1l-13 15l-1 1q-4 5 -9 10v0q-5 5 -10 9v1
q-5 4 -10 9h-1q-2 2 -5 4v1q-3 1 -5 3l-1 1q-25 19 -54 32v0q-4 2 -7 3v0q-47 21 -98 24v0h-14h-599q-40 0 -69 -28q-29 -29 -29 -70v-1238q0 -41 29 -70t69 -29h595z" />
    <glyph glyph-name="f" unicode="f" 
d="M98 1434q-40 0 -69 -28q-29 -29 -29 -70v-1238q0 -40 29 -69t69 -29q41 0 70 29q28 29 28 69v46h3v471h432q41 0 70 29t29 69q0 41 -29 70t-70 29h-432v426h494q40 0 69 -29q28 -28 28 -69h1q-1 -3 -1 -6q0 -40 29 -69t70 -29q40 0 69 29t29 69v6v0q0 122 -87 208
q-86 86 -207 86h-595z" />
    <glyph glyph-name="g" unicode="g" 
d="M327 196q-58 0 -94 37q-37 37 -37 94v709v0v104q0 41 29 69q29 29 69 29h104v0h190v0h105q40 0 69 -29q28 -28 28 -69h1l-1 -3v-3q0 -40 29 -69t70 -29v0q40 0 69 29t29 69v2v4v0v0q0 122 -87 208q-86 86 -207 86h-399q-121 0 -208 -86q-86 -86 -86 -208v-846
q0 -121 87 -207q86 -87 207 -87h399q121 0 207 87q87 86 87 207v1v0v3v418v2l-1 3v2v3v2l-1 3v2l-1 3v2l-1 2l-1 3v2l-1 2l-1 2l-1 3l-1 2l-1 2l-1 2l-1 2l-1 2l-1 2l-2 2l-1 2l-1 2l-2 2l-1 2l-2 2l-1 2l-2 1l-1 2l-2 2l-2 1l-1 2l-2 2l-2 1l-2 2l-2 1l-2 1l-2 2l-2 1l-2 1
l-2 2l-2 1l-2 1l-2 1l-2 1l-2 1l-3 1l-2 1h-2l-2 1l-3 1l-2 1h-2l-3 1h-2l-3 1h-2h-2h-3l-2 1h-3h-347q-40 0 -69 -29t-29 -70q0 -40 29 -69t69 -29h246v-315q0 -2 1 -5l-1 -1q0 -40 -28 -69q-29 -28 -69 -28h-105v-1h-261z" />
    <glyph glyph-name="h" unicode="h" 
d="M197 99q0 -41 -29 -70t-70 -29q-40 0 -69 29t-29 70v1238q0 41 29 70q29 28 69 28q41 0 70 -29t29 -69v-525h594v525q0 41 29 70q29 28 69 28q41 0 70 -29t29 -69v-1238q0 -41 -29 -70t-70 -29q-40 0 -69 29t-29 70v517h-594v-517z" />
    <glyph glyph-name="i" unicode="i" horiz-adv-x="800" 
d="M172 197v1040h-74q-40 0 -69 29t-29 69q0 41 29 70t69 29h344q41 0 70 -29t29 -70q0 -40 -29 -69t-70 -29h-74v-1040h74q41 0 70 -29t29 -70q0 -40 -29 -69t-70 -29h-344q-40 0 -69 29t-29 69q0 41 29 70t69 29h74z" />
    <glyph glyph-name="j" unicode="j" 
d="M987 294q0 -121 -87 -207q-86 -87 -207 -87h-399q-121 0 -208 87q-86 86 -86 207v1v4v1q0 41 29 70t69 29q41 0 70 -29q28 -29 28 -70v-3v-2v-1q0 -40 29 -69q29 -28 69 -28h104v-1h190v1h105q40 0 69 28q28 29 28 69v105h1v839h-170v0h-4h-1h-112v-87q0 -41 -28 -70
q-29 -28 -70 -28q-40 0 -69 28q-29 29 -29 70v185q0 41 29 70q29 28 69 28h483q40 0 69 -28q29 -29 29 -70v-1042z" />
    <glyph glyph-name="k" unicode="k" 
d="M197 98q0 -40 -29 -69t-70 -29q-40 0 -69 29t-29 69v1239q0 40 29 69t69 29q41 0 70 -29t29 -69v-521h264l183 127l147 103v291q0 40 29 69t69 29q41 0 70 -29q28 -29 28 -69v-350q0 -6 -1 -12v-2v0l-1 -2v0v-1v-1l-1 -1v-1v-1v-1l-1 -1v-1v-1l-1 -1q-1 -4 -2 -7l-1 -2
l-1 -1v-1v-1l-1 -1q-1 -1 -2 -3l-1 -2v0l-1 -2v0v0l-1 -2v0l-1 -1v-1h-1v-1l-1 -1v0l-2 -3v0l-1 -1v-1q-5 -6 -11 -11l-1 -1h-1l-1 -2l-8 -6h-1l-1 -1l-2 -1l-1 -1h-1v0l-2 -1v0l-1 -1l-1 -1v0h-2v-1h-1h-1v-1h-1q-1 -1 -3 -1l-18 -12l-244 -172l262 -183q61 -25 61 -91
v-345q0 -40 -28 -69q-29 -29 -70 -29q-40 0 -69 29t-29 69v290l-330 231h-264v-521z" />
    <glyph glyph-name="l" unicode="l" 
d="M0 98q0 -40 29 -69t69 -29h595q121 0 207 87q87 86 87 207v1v4v1q0 41 -29 70t-69 29q-41 0 -70 -29t-29 -70v-3q0 -1 1 -2l-1 -1q0 -40 -28 -69q-29 -28 -69 -28h-105v-1h-392v1140q0 41 -29 69q-28 29 -69 29q-40 0 -69 -28q-29 -29 -29 -70v-1238z" />
    <glyph glyph-name="m" unicode="m" 
d="M196 98q0 -40 -28 -69q-29 -29 -70 -29q-40 0 -69 29t-29 69v1243v1v2v0v2l1 1v1v0q2 20 12 37v0l1 1l1 2v0v0v1v0h1v1l1 1v0v0q4 6 9 11v1l3 3v0l2 2l2 2h1v1h1v1h1v1h1v0h1v1h1v0l1 1v0v0v0l1 1v0l1 1h1v1h1h1v1l1 1h1l1 1h1v0l1 1q1 0 2 1h1v0v1h2v1v0h1h1q2 1 3 2v0
q3 1 5 2h1v0v0h1q5 2 11 3h1v1h3v0v0h1h1l1 1h1h1h2h1h1h2h1h6h6v0h2v0h3v0v0l1 -1v0h1v0h2v0v0h1v0l1 -1v0h1h1h1h1q2 -1 4 -1l2 -1h1v0l1 -1v0h2l2 -1v0h1l1 -1h1v0l2 -1v0l4 -2v0h1l1 -1v0l1 -1h1v0h1l2 -1l2 -2v0q2 -1 3 -2l1 -1h1l1 -1v0q1 -1 3 -2v-1l2 -1v0v0l2 -2v0
l2 -1l1 -1l1 -1v0v0l1 -2h1q3 -4 6 -7v0v-1l1 -1v0l2 -2l314 -450l315 450l1 1v1h1q2 3 4 5v1v0l1 1h1v1v0l1 1h1v1l2 2v0h1v1h1v1l1 1h1l1 1l1 1l1 1h1q2 2 5 4l1 1q12 8 25 12l3 1v0h1v0v0l2 1h1h1v0v0q3 1 6 1q1 0 4 1v0h4v0h7h5h1h2v0h1h2v0h2q7 -1 14 -3v0l1 -1h1v0h2
v-1h2v0l2 -1v0v0h1l1 -1v0h1h1l1 -1h1l1 -1v0v0h1l1 -1v0l2 -1v0h1l1 -1v0h1v0q1 -1 3 -2v0l1 -1v0v0l1 -1h1v0v0l1 -1h1l1 -1v0l1 -1v0l1 -1l2 -1l1 -1v0l1 -1l1 -1v0l1 -1v0h1l1 -1l2 -2v0q2 -2 4 -5h1v-1v0l1 -1l1 -1v0v-1v0l2 -2v0l1 -1v0v0v-1l6 -8v-1l1 -1v-1l1 -1v0
v-1l1 -1v-1l1 -1v0v0v-1v0v0l1 -1v0v-1l1 -1v-1v0v-1v-1h1v0v-1q1 -2 1 -3l1 -2v-1v0v0v0v-1l1 -1v0v-3v0v0v-1l1 -1v-1v0v-1v-1l1 -2v0v-1v-1v-1v-2v0v-2l1 -2v-1v-3v-1v-1239q0 -40 -29 -69t-69 -29q-41 0 -70 29t-29 69v927l-120 -171l-78 -113v-136q0 -40 -29 -69
t-70 -29q-40 0 -69 29t-29 69v136l-124 177l-75 107v-927z" />
    <glyph glyph-name="n" unicode="n" 
d="M196 98q0 -40 -29 -69q-28 -29 -69 -29q-40 0 -69 29t-29 69v1237q0 41 29 70q29 28 69 28h4h2h2v0h2v0h1v0h2v-1h1h1v0h1v0h1v0h1v0l1 -1v0h1q64 14 101 -39q-9 12 571 -820v763q0 41 29 70q28 28 69 28q40 0 69 -29q29 -28 29 -69v-1061q2 -15 0 -30v-146
q0 -40 -29 -69t-69 -29t-69 29t-29 69v131l-594 852v-983z" />
    <glyph glyph-name="o" unicode="o" 
d="M326 196q-57 0 -94 37q-36 36 -36 94v707v0v104q0 40 29 69q28 28 69 28h103v1h190v-1h104q40 0 69 -28q29 -29 29 -69v0v-3v-6v-4v-808h1q0 -3 -1 -5v-1v-1v-2v0v-2v-1v-11q0 -40 -29 -69t-69 -29h-104v0h-261zM984 294v4v6v2v1v1v0q0 4 -1 8v1h2v821q0 121 -87 207
q-86 86 -207 86h-397q-122 0 -208 -86t-86 -207v-844q0 -121 86 -207q87 -87 208 -87h397q121 0 207 87q87 86 87 207h-1v0z" />
    <glyph glyph-name="p" unicode="p" 
d="M199 1238v-422h389v0h105q40 0 69 29q28 28 28 69v104h1v18h-1v104q0 41 -28 69q-29 29 -69 29h-105v0h-389zM199 619v-475h-3v-45q0 -41 -28 -70q-29 -29 -70 -29q-40 0 -69 29t-29 70v1237q0 41 29 70t69 29h595q121 0 207 -87q87 -86 87 -208v-226q0 -122 -87 -208
q-86 -87 -207 -87h-494z" />
    <glyph glyph-name="q" unicode="q" 
d="M326 196q-57 0 -94 37q-36 36 -36 94v707v0v104q0 40 29 69q28 28 69 28h104v1h189v-1h104q40 0 69 -28q29 -29 29 -69v0v-3v-1v-5v0v-4v0v-790l-76 76q-29 28 -69 28q-41 0 -70 -28q-28 -29 -28 -70q0 -40 28 -69l76 -76h-63v0h-261zM956 168q29 60 29 126h-1v0v4v6v2v1
v1v0q0 4 -1 8v1h2v821q0 121 -87 207q-86 86 -207 86h-397q-122 0 -208 -86t-86 -207v-844q0 -121 86 -207q87 -87 208 -87h397q66 0 126 29v0q29 -29 70 -29q40 0 69 29t29 69q0 41 -29 70v0z" />
    <glyph glyph-name="r" unicode="r" 
d="M206 1238v-422h389v0h105q40 0 69 29q28 28 28 69v104h1v18h-1v104q0 41 -28 69q-29 29 -69 29h-105v0h-389zM962 795l-1 -1l-1 -3l-2 -4l-2 -3l-1 -2l-2 -4l-1 -2l-2 -5h-1l-2 -5l-1 -2l-12 -18l-1 -2q-1 0 -3 -3l-1 -2l-2 -3l-2 -2l-3 -3l-1 -2l-3 -3l-2 -3l-2 -3
l-1 -1q-14 -16 -30 -29l-1 -1l-10 -8v0q-14 -11 -30 -20l-1 -1q-5 -3 -11 -6q-17 -9 -34 -16v0q-24 -9 -50 -14l212 -212q33 -33 28 -79v-2v0l1 -2v0v-3v-1v-226q0 -41 -29 -70t-69 -29q-41 0 -70 29t-29 70v203l-317 317h-274v-520q0 -41 -29 -70t-70 -29q-42 0 -71 29
t-29 70v1237q0 41 29 70t69 29h595q121 0 207 -87q87 -86 87 -208v-226v-7v-3l-1 -5v-3v-3v-3l-1 -5v-3v-3l-1 -4v-3l-1 -4q0 -2 -1 -5v-1q0 -3 -1 -6l-1 -3l-1 -5v-2q-1 -2 -1 -5l-1 -2l-1 -5l-1 -1l-1 -5l-1 -3l-1 -4l-1 -2l-2 -6v0q-1 -3 -3 -6v-1l-1 -3q-2 -4 -3 -8z
" />
    <glyph glyph-name="s" unicode="s" 
d="M168 353q28 -29 28 -69v-87h392v0h105q40 0 69 29q28 28 28 69v104h1v18h-1v104q0 41 -28 69q-29 29 -69 29h-105v0h-190v0h-104q-121 0 -208 87q-86 86 -86 208v226q0 122 86 208q87 87 208 87h597l3 -1h2h3h2l2 -1h3q5 -1 9 -2l3 -1q4 -1 9 -3l8 -4l2 -2l2 -1v0l2 -1v0
l2 -1l2 -2v0l2 -1l1 -1h1v0l2 -2v0q2 -1 3 -3h1l1 -2v0l2 -1q1 -2 3 -4v0l2 -1l6 -8v0l1 -2q14 -21 16 -47h1v-2v-1v-2v-188q0 -40 -29 -69t-69 -29q-41 0 -70 29t-29 69v87h-392v0h-104q-40 0 -69 -29q-29 -28 -29 -69v-104v0v-18v0v-104q0 -41 29 -69q29 -29 69 -29h104v0
h73v-1h222q121 0 207 -86q87 -86 87 -208v-226q0 -122 -87 -208q-86 -87 -207 -87l-600 1h-2h-3h-2l-3 1h-2l-10 2v0l-2 1v0q-4 1 -9 3v0l-8 4l-2 1h-1l-2 2l-2 1v0l-2 1v0l-1 2h-1l-1 1l-2 1v0l-2 2q-10 8 -18 19v0l-1 2q-15 21 -17 47v0v2v1v2v188q0 40 29 69t69 29
q41 0 70 -29z" />
    <glyph glyph-name="t" unicode="t" 
d="M819 1082q-29 29 -29 69v87h-197v-1139q0 -41 -29 -70q-30 -29 -71 -29t-70 29t-29 70v1139h-198v-87q0 -40 -28 -69q-29 -29 -70 -29q-40 0 -69 29t-29 69v188v2v3v0q2 26 17 47l1 2v0q8 11 18 19l2 2v0l2 1l1 1h1l1 2l2 1v0l2 1v0l3 2l1 1h1l8 4t9 3l2 1l10 2h2l3 1h2
h3h2l3 1h795l3 -1h2h3h2v0l2 -1h3q5 -1 9 -2l3 -1v0q4 -1 9 -3l8 -4v0l2 -1v-1l2 -1v0l2 -1v0l2 -1v0l2 -2v0l2 -1l2 -1v0l2 -2q10 -8 17 -19h1l1 -2q14 -21 16 -47v0l1 -2v-3v-2v-186q0 -40 -29 -69t-69 -29q-41 0 -70 29z" />
    <glyph glyph-name="u" unicode="u" 
d="M327 197q-58 0 -94 36q-37 37 -37 94v72v0v493v0v442q0 40 -28 68q-29 29 -70 29q-40 0 -69 -29q-29 -28 -29 -68v-1039q0 -122 87 -208q86 -87 207 -87h399q121 0 207 87q87 86 87 208v0v0v4v6v2v1l-1 1v0q0 4 -1 8v0h2v575v0v442q0 40 -29 68q-29 29 -69 29v0
q-41 0 -69 -29q-29 -28 -29 -68v-1017h1q-1 -2 -1 -5v0v-1v-1v0v-3v0l-1 -1v-3v-6q0 -1 1 -2h-1q0 -41 -28 -69q-29 -29 -69 -29h-105v0h-261z" />
    <glyph glyph-name="v" unicode="v" 
d="M29 1402q-29 -28 -29 -69v-676v-1v-1v-1v-2l1 -1v-2v0v-1v0v-1v-1v0v-1l1 -1v0v-2v0q0 -1 1 -3v0v0v-1v-1v-1q1 -3 2 -7v0l1 -2v0l2 -4v-1v-1h1v-1l1 -1v0v-1v-1h1v-1v0v-1l1 -1v-1h1v-1v0h1v-1v-1l1 -1l1 -1v-1h1v-1l1 -1l390 -558h1l2 -4v0l1 -1v-1v0l1 -1v0v0l1 -1v0
q1 -2 3 -3v-1l1 -1v0l1 -1v0v-1h1v-1v0l1 -1h1v0v-1h1v0l1 -1l1 -1v0l1 -1v0v0l2 -2v0v0h1v-1h1v-1l2 -1v0v0l1 -1v0h1v0v-1h1v-1h1l1 -1l1 -1l2 -1v0v0l1 -1h1l1 -1h1v0v0l1 -1h1l1 -1h1l1 -1v0h1l1 -1h1l1 -1v0v0h1l1 -1v0h2l1 -1h1h1v0l1 -1h1v0h1l1 -1v0h1h1
q12 -4 25 -4l5 1h4v0q10 1 20 3v0v1h1h1h1v0l1 1v0v0h1l2 1h1h1q2 1 5 2v1h1h1v1h1l1 1v0h1l1 1h1l1 1v0h1l1 1l1 1h1v1h1l1 1v0l2 2v0h1h1v1v0l2 1v1h1l1 1v0v0l2 2v0v0l1 1v0h1v1v0h1v1h1v0v1h1v1v0l1 1h1v1l1 1v0l1 1v0v1h1l1 1v0l1 2v0v1h1v0l1 1v0l1 2v0v1h1v1v0l1 2h1
l390 558l1 1l1 1v0v1l1 1l1 1v1l1 1v0v0v1h1v1l1 1v1v1h1v1v1l1 1q1 2 1 3l1 1v1v1l1 1v1l1 1v0v0v1v1l1 1q0 1 1 4v1v0v2v0q1 3 2 7v1v0q1 5 1 9v677q0 41 -29 69q-28 29 -69 29q-40 0 -69 -29q-29 -28 -29 -69v-641l-173 -248l-123 -175l-296 423v641q0 41 -29 69
q-29 29 -69 29t-69 -29z" />
    <glyph glyph-name="w" unicode="w" 
d="M196 1336q0 41 -28 70q-29 29 -70 29q-40 0 -69 -29t-29 -70v-1237q0 -26 13 -49v0v-1q11 -18 29 -31q23 -16 51 -17h1l4 -1q3 0 6 1h2h2v0h3q43 6 68 41l314 450l315 -450q21 -30 58 -39v0h1v0q2 -1 4 -1h1q5 -1 9 -1v0q4 -1 8 -1l4 1h1q28 1 51 17q22 15 33 40
q9 19 9 41v1237q0 41 -29 70t-69 29q-41 0 -70 -29t-29 -70v-926l-209 299v120q0 41 -29 70t-69 29q-41 0 -69 -29q-29 -29 -29 -70v-150l-189 -269v926z" />
    <glyph glyph-name="x" unicode="x" 
d="M822 29q-29 29 -29 70v204l-111 111l-187 187l-187 -187l-111 -111v-204q0 -41 -29 -70t-69 -29q-41 0 -70 29t-29 70v228v1l1 3v0v2q-1 11 0 22v0v0v1q1 4 1 8l1 1v1v1v1v0l1 1v2v0l1 2v0v1v1l1 1v1q1 4 3 7v1v0v0l1 2v1l1 1l1 1q2 4 4 7v1v0l1 1l1 1l1 1l1 1v1l1 1v0v0
l1 1l1 2v0l1 1v0v0l1 2v0h1l1 1v0l1 1l1 1l304 304l-304 304q-33 33 -28 80v1v2l-1 2v1v229q0 40 29 69t70 29q40 0 69 -29t29 -69v-204l298 -298l298 298v204q0 40 29 69t69 29q41 0 70 -29t29 -69v-225v0v-5l-1 -2v0v-1v-1v-1v0q1 -11 0 -21v0q0 -6 -2 -11v0v-1v-1v-1
l-2 -6l-1 -1v0q-1 -4 -3 -8v-1v-1v0l-1 -2v0v0l-1 -2v0h-1l-4 -8v0l-1 -2v0l-1 -1l-1 -1v0l-1 -1l-1 -1v0v-1l-1 -1v0l-1 -1l-1 -1v0q-2 -3 -5 -6l-304 -304l304 -304l1 -1l1 -1l1 -1h1v0l1 -2v0v0l1 -1v0l1 -2l1 -1v0v0l1 -1v-1l1 -1l1 -1l1 -1l1 -1v0v-1q2 -3 4 -7l1 -1
l1 -1v-1v0l1 -2v0v0v-1q2 -3 3 -7v-1l1 -1v-1v-1l1 -2v0v-2l1 -1v0v-1v-1v-1l1 -1q0 -4 1 -8v-1v0v0q1 -11 0 -22v-2v0l1 -3v-4v-1v-224q0 -41 -29 -70t-70 -29q-40 0 -69 29z" />
    <glyph glyph-name="y" unicode="y" 
d="M822 1405q-29 -28 -29 -69v-204l-298 -298l-186 187l-112 111v204q0 41 -28 69q-29 29 -70 29t-70 -29q-28 -28 -28 -69v-224v-1v-5v-2v0v-3q-1 -10 0 -21v0v-1v0q1 -5 2 -8v-1v-1v-1l1 -1v0v-2v-1v0l1 -3v0l1 -1v-2v0q2 -4 3 -7v-1l1 -1v-1h1v-1v0v-1l1 -1q2 -4 4 -7
l1 -1l1 -1v-1v0l1 -1l1 -2l1 -1v-1h1q1 -2 3 -4l1 -1v0v0l1 -1v-1l1 -1l1 -1l368 -367v-555q0 -41 29 -70t69 -29q41 0 70 29t29 70v555l367 367l1 1l1 1v1l1 1h1v0l1 1q1 2 3 4v0l1 1l1 1l1 2l1 1v0v1l1 1v1q3 3 5 7v1l1 1v0v1v0l1 1v1l1 1q1 3 2 7l1 1v1v1h1v3v0l1 1v2v0
v1l1 1v1v1q1 3 1 8v0l1 1v0q1 11 0 21v3v0v2v2v228q0 41 -29 69q-29 29 -69 29q-41 0 -70 -29z" />
    <glyph glyph-name="z" unicode="z" 
d="M167 1079q28 29 28 69v87l593 1v-56l-760 -792q-31 -31 -28 -75v-215q0 -40 28 -69q29 -29 70 -29l786 2q41 0 70 28q29 29 30 70v185q0 40 -29 69t-69 29t-70 -30q-28 -29 -28 -70v-87h-593v83l379 395l381 398q32 31 29 76v187q-1 41 -29 69q-29 29 -69 29l-788 -2
q-41 0 -69 -29q-29 -28 -29 -68v-186q0 -40 28 -69q29 -29 70 -29q40 0 69 29z" />
    <glyph glyph-name="braceleft" unicode="{" horiz-adv-x="900" 
d="M432 1263q0 61 41 102q42 42 103 42q43 0 69 27q27 26 27 69t-27 69q-26 27 -69 27q-137 0 -237 -99q-99 -100 -99 -237v-292q0 -60 -42 -102q-41 -42 -102 -42q-43 0 -69 -26q-27 -27 -27 -70q0 -42 27 -69q26 -26 69 -26q61 0 102 -42q42 -42 42 -102v-352
q0 -138 99 -237q100 -99 237 -99q43 0 69 26q27 27 27 70q0 42 -27 69q-26 26 -69 26q-61 0 -103 42q-41 42 -41 103v352q0 142 -102 239q102 98 102 240v292z" />
    <glyph glyph-name="bar" unicode="|" horiz-adv-x="400" 
d="M196 1502q-1 40 -29 69q-28 28 -69 28q-40 0 -69 -28q-29 -29 -29 -69v-1616q0 -40 29 -69q29 -28 69 -28t69 28q29 29 29 69v1616z" />
    <glyph glyph-name="braceright" unicode="}" horiz-adv-x="900" 
d="M240 971q0 -142 102 -240q-102 -97 -102 -239v-352q0 -61 -42 -103q-41 -42 -102 -42q-43 0 -69 -26q-27 -27 -27 -69q0 -43 27 -70q26 -26 69 -26q137 0 236 99q100 99 100 237v352q0 60 41 102q42 42 103 42q43 0 69 26q27 27 27 69q0 43 -27 70q-26 26 -69 26
q-61 0 -103 42q-41 42 -41 102v292q0 137 -100 237q-99 99 -236 99q-43 0 -69 -27q-27 -26 -27 -69t27 -69q26 -27 69 -27q61 0 102 -42q42 -41 42 -102v-292z" />
    <glyph glyph-name="asciitilde" unicode="~" horiz-adv-x="1014" 
d="M923 878v-156q-63 -72 -122 -97.5t-116 -25.5q-60 0 -177.5 48.5t-176.5 48.5q-51 0 -107.5 -28t-129.5 -112v156q64 73 123 99t114 26q64 0 181.5 -49.5t172.5 -49.5q52 0 108.5 28t129.5 112z" />
    <glyph glyph-name="exclamdown" unicode="&#xa1;" horiz-adv-x="672" 
 />
    <glyph glyph-name="cent" unicode="&#xa2;" horiz-adv-x="1139" 
 />
    <glyph glyph-name="sterling" unicode="&#xa3;" horiz-adv-x="1014" 
 />
    <glyph glyph-name="currency" unicode="&#xa4;" horiz-adv-x="1014" 
 />
    <glyph glyph-name="yen" unicode="&#xa5;" horiz-adv-x="1262" 
 />
    <glyph glyph-name="brokenbar" unicode="&#xa6;" horiz-adv-x="1014" 
 />
    <glyph glyph-name="section" unicode="&#xa7;" horiz-adv-x="1014" 
 />
    <glyph glyph-name="dieresis" unicode="&#xa8;" horiz-adv-x="700" 
d="M92 1200q38 0 65 27t27 65v0q0 38 -27 65t-65 27v0q-38 0 -65 -27t-27 -65v0q0 -38 27 -65t65 -27v0zM392 1200q38 0 65 27t27 65v0q0 38 -27 65t-65 27v0q-38 0 -65 -27t-27 -65v0q0 -38 27 -65t65 -27v0z" />
    <glyph glyph-name="copyright" unicode="&#xa9;" horiz-adv-x="1674" 
d="M840 1456q145 0 280 -56.5t239 -160.5q102 -101 158.5 -238t56.5 -283q0 -147 -56.5 -282t-162.5 -240q-105 -105 -239 -159.5t-283 -54.5q-146 0 -278 55.5t-238 160.5q-106 104 -161.5 237.5t-55.5 282.5q0 148 55.5 283t159.5 238q102 104 238.5 160.5t286.5 56.5z
M382 1166q-90 -91 -138 -207t-48 -244q0 -129 48 -244t139 -207q93 -90 207 -138t241 -48q129 0 244 47.5t207 137.5q91 92 140 208t49 244q0 126 -49 244t-137 207q-90 90 -206.5 138.5t-243.5 48.5q-129 0 -246.5 -48.5t-206.5 -138.5zM747 438q-31 0 -50 20
q-20 19 -20 50v379v0v56q0 22 16 37q15 15 36 15h56v0h102v0h56q21 0 36 -15q16 -15 16 -37v0v-3q0 -22 15 -37q16 -16 37 -16q22 0 38 16q15 15 15 37v3v0q0 65 -46 111q-47 46 -111 46h-214q-64 0 -111 -46q-46 -46 -46 -111v-452q0 -65 46 -112q47 -46 111 -46h214
q64 0 111 46q46 47 46 112v0v3q0 21 -15 37q-16 15 -38 15q-21 0 -37 -15q-15 -16 -15 -37v-3v0q0 -22 -16 -37q-15 -16 -36 -16h-56v0h-140z" />
    <glyph glyph-name="ordfeminine" unicode="&#xaa;" horiz-adv-x="648" 
 />
    <glyph glyph-name="guillemotleft" unicode="&#xab;" horiz-adv-x="1100" 
d="M557 518q395 256 373 242q23 16 30 44q8 29 -6 55q-13 26 -39 34t-50 -7l-467 -303q-18 -11 -26 -31q-9 -20 -6 -42q1 -17 9 -32v0v0l1 -2v0l1 -1v0l1 -1v0l2 -4v0q2 -3 5 -6v0v0l1 -1v-1v0h1l1 -1l1 -1v0v0l1 -1v0v0l2 -2l1 -1h1v0l1 -1l1 -1h1v-1h1l468 -303
q23 -15 49 -7q26 7 39 33q14 27 7 55q-7 29 -30 45l-12 8l-18 11l-5 4h-2l-4 3l-3 2l-3 2l-5 3l-13 8l-1 1l-10 7l-5 3l-1 1l-6 4l-6 3l-1 1l-28 18l-2 1l-4 3l-3 2l-11 7l-9 6l-2 1l-4 3l-10 6v1l-2 1l-6 3v0l-10 7l-25 16l-1 1l-4 3l-3 2l-3 2l-10 6l-2 1v0l-18 12l-4 2
l-1 1l-6 4v0l-6 4l-2 1l-4 3l-3 2l-3 1l-4 3l-2 1l-11 8l-2 1l-14 9l-2 1l-57 37zM193 518q395 255 373 242q23 16 30 44q7 29 -6 55t-40 34q-26 8 -49 -7l-468 -303q-17 -11 -26 -32q-8 -20 -5 -41q1 -17 9 -32v0v-1l1 -1v0v-1v0l1 -2h1q1 -2 2 -3v0l4 -6v0l1 -1l1 -1v0v0
l1 -1l1 -1v0h1v-1h1v0v-1l2 -2h1l1 -1v0l1 -1h1l1 -1v0l1 -1l468 -303q23 -15 49 -7t39 34q14 26 7 55q-8 28 -31 44l-12 8l-17 11l-6 4l-1 1l-5 3l-2 2l-3 2l-5 3l-13 8l-1 1l-11 7l-4 2l-1 1l-6 4l-6 4l-2 1l-27 18l-2 1l-4 3l-3 2l-11 7l-9 6l-2 1l-4 3l-10 6h-1l-1 1
l-6 4v0l-10 7l-25 16l-1 1l-5 2l-3 2l-3 2l-9 6l-2 2v0l-18 11l-4 3l-2 1l-5 4h-1l-5 3l-2 1l-4 3l-3 2l-3 2l-4 3l-2 1l-11 7l-2 1l-15 10l-1 1l-57 37z" />
    <glyph glyph-name="registered" unicode="&#xae;" horiz-adv-x="1674" 
d="M840 1456q145 0 280 -56.5t239 -160.5q102 -101 158.5 -238t56.5 -283q0 -147 -56.5 -282t-162.5 -240q-105 -105 -239 -159.5t-283 -54.5q-146 0 -278 55.5t-238 160.5q-106 104 -161.5 237.5t-55.5 282.5q0 148 55.5 283t159.5 238q102 104 238.5 160.5t286.5 56.5z
M391 1173q-89 -90 -137 -206t-48 -244q0 -129 48 -243.5t139 -205.5q92 -90 205.5 -138t240.5 -48q129 0 244 47.5t206 136.5q91 92 140 208t49 243q0 126 -49 244t-136 206q-90 90 -206.5 138.5t-242.5 48.5q-129 0 -246.5 -48.5t-206.5 -138.5zM683 1031v-239h220v0h59
q23 0 40 16q16 17 16 40v59v0v10v0v59q0 23 -16 39q-17 16 -40 16h-59v0h-220zM1115 781v-2l-1 -1l-1 -2l-1 -2l-1 -1l-1 -2v-1l-2 -3v0l-1 -3l-1 -1q-3 -5 -7 -11v0l-2 -2l-1 -1l-1 -2l-1 -2l-1 -1l-1 -1l-2 -2l-1 -2l-1 -1l-1 -1q-8 -9 -17 -16v-1l-6 -4v0q-8 -6 -17 -12
h-1l-6 -4q-9 -5 -19 -8v-1q-14 -5 -28 -7l120 -120q19 -19 16 -46v0v0v-2v0v-1v-1v-128q0 -23 -16 -39q-17 -17 -39 -17q-23 0 -40 17q-16 16 -16 39v115l-180 180h-155v-295q0 -23 -17 -39q-16 -17 -39 -17q-24 0 -40 17q-17 16 -17 39v701q0 23 17 39q16 17 39 17h336
q69 0 118 -49t49 -118v-128v-4v-2v-3v-1v-2v-2l-1 -3v-2v-1v-2l-1 -2v-2v-3l-1 -1v-3l-1 -2v-3v-1q-1 -1 -1 -3v-1l-1 -3v0l-1 -3l-1 -2v-2l-1 -1q0 -2 -1 -3v-1q-1 -1 -1 -3l-1 -1v-1z" />
    <glyph glyph-name="macron" unicode="&#xaf;" horiz-adv-x="670" 
 />
    <glyph glyph-name="plusminus" unicode="&#xb1;" horiz-adv-x="1014" 
 />
    <glyph glyph-name="uni00B2" unicode="&#xb2;" horiz-adv-x="1014" 
 />
    <glyph glyph-name="uni00B3" unicode="&#xb3;" horiz-adv-x="1014" 
 />
    <glyph glyph-name="acute" unicode="&#xb4;" horiz-adv-x="500" 
d="M244 1306q14 37 -2 64q-16 26 -54 26q-37 0 -74 -26q-37 -27 -52 -64l-35 -91q-13 -33 -2 -59q12 -25 42 -30l-45 -46q-19 -19 -21 -41q-3 -21 12 -32q14 -11 38 -5q24 5 42 24q3 4 18 18l23 23q27 29 33 43z" />
    <glyph glyph-name="mu" unicode="&#xb5;" horiz-adv-x="1180" 
 />
    <glyph glyph-name="uni00B9" unicode="&#xb9;" horiz-adv-x="1014" 
 />
    <glyph glyph-name="ordmasculine" unicode="&#xba;" horiz-adv-x="718" 
 />
    <glyph glyph-name="guillemotright" unicode="&#xbb;" 
d="M406 517l-57 -37l-2 -1l-14 -9l-2 -1l-12 -8l-1 -1l-4 -3l-3 -1l-3 -2l-4 -3l-2 -1l-6 -4v0l-6 -4l-1 -1l-5 -2l-17 -12v0l-3 -1l-9 -6l-3 -2l-3 -2l-4 -3l-1 -1l-25 -16l-10 -7h-1l-5 -3l-2 -1v-1l-10 -6l-4 -3l-2 -1l-9 -6l-11 -7l-3 -2l-5 -3l-1 -1l-28 -18l-1 -1
l-6 -3l-6 -4l-1 -1l-5 -3l-10 -7l-1 -1l-14 -8l-4 -3l-3 -2l-3 -2l-4 -3h-2l-5 -4l-18 -11l-12 -8q-23 -16 -30 -45q-7 -28 6 -55q14 -26 40 -33q26 -8 49 7l468 303h1v1h1l1 1l1 1v0h1l1 1q0 1 1 2h1v0l1 1v0v0l1 1l1 1v0h1v1l1 1v0v0q3 3 5 6v0l2 4v0l1 1v0l1 1v0l1 2v0v0
q8 15 9 32q3 22 -6 42q-8 20 -26 31l-467 303q-24 15 -50 7t-39 -34q-14 -26 -6 -55q7 -28 30 -44q-22 14 373 -242zM770 517l-57 -37l-1 -1l-15 -10l-2 -1l-11 -7l-2 -1l-4 -3l-3 -2l-3 -2l-4 -3l-2 -1l-6 -3v0l-6 -4l-1 -1l-4 -3l-18 -11v0l-2 -2l-10 -6l-2 -2l-3 -2
l-5 -2l-1 -1l-25 -16l-10 -7v0l-6 -4l-2 -1v0l-10 -6l-4 -3l-2 -1l-9 -6l-11 -7l-3 -2l-4 -3l-2 -1l-28 -18l-1 -1l-6 -4l-6 -4l-1 -1l-5 -2l-10 -7l-1 -1l-13 -8l-5 -3l-3 -2l-3 -2l-4 -3l-1 -1l-6 -4l-18 -11l-11 -8q-24 -16 -31 -44q-7 -29 7 -55q13 -26 39 -34t49 7
l468 303l1 1v0l1 1h1l1 1v0l1 1h1l2 2v1v0h1v1v0h1l1 1l1 1v0v0l1 1v1h1l4 6v0q1 1 2 3h1v2h1v1v0l1 1v1v0q8 15 9 32q3 21 -5 41q-9 21 -26 32l-468 303q-23 15 -50 7q-26 -8 -39 -34t-6 -55q7 -28 30 -44q-22 13 373 -242z" />
    <glyph glyph-name="onequarter" unicode="&#xbc;" horiz-adv-x="1708" 
 />
    <glyph glyph-name="onehalf" unicode="&#xbd;" horiz-adv-x="1964" 
 />
    <glyph glyph-name="threequarters" unicode="&#xbe;" horiz-adv-x="1708" 
 />
    <glyph glyph-name="questiondown" unicode="&#xbf;" horiz-adv-x="748" 
 />
    <glyph glyph-name="Agrave" unicode="&#xc0;" horiz-adv-x="1540" 
 />
    <glyph glyph-name="Aacute" unicode="&#xc1;" horiz-adv-x="1540" 
 />
    <glyph glyph-name="Acircumflex" unicode="&#xc2;" horiz-adv-x="1540" 
 />
    <glyph glyph-name="Atilde" unicode="&#xc3;" horiz-adv-x="1540" 
 />
    <glyph glyph-name="Adieresis" unicode="&#xc4;" horiz-adv-x="1540" 
 />
    <glyph glyph-name="Aring" unicode="&#xc5;" horiz-adv-x="1540" 
 />
    <glyph glyph-name="AE" unicode="&#xc6;" horiz-adv-x="2118" 
 />
    <glyph glyph-name="Ccedilla" unicode="&#xc7;" horiz-adv-x="1399" 
 />
    <glyph glyph-name="Egrave" unicode="&#xc8;" horiz-adv-x="1151" 
 />
    <glyph glyph-name="Eacute" unicode="&#xc9;" horiz-adv-x="1151" 
 />
    <glyph glyph-name="Ecircumflex" unicode="&#xca;" horiz-adv-x="1151" 
 />
    <glyph glyph-name="Edieresis" unicode="&#xcb;" horiz-adv-x="1151" 
 />
    <glyph glyph-name="Igrave" unicode="&#xcc;" horiz-adv-x="657" 
 />
    <glyph glyph-name="Iacute" unicode="&#xcd;" horiz-adv-x="657" 
 />
    <glyph glyph-name="Icircumflex" unicode="&#xce;" horiz-adv-x="657" 
 />
    <glyph glyph-name="Idieresis" unicode="&#xcf;" horiz-adv-x="657" 
 />
    <glyph glyph-name="Eth" unicode="&#xd0;" horiz-adv-x="1518" 
 />
    <glyph glyph-name="Ntilde" unicode="&#xd1;" horiz-adv-x="1554" 
 />
    <glyph glyph-name="Ograve" unicode="&#xd2;" horiz-adv-x="1614" 
 />
    <glyph glyph-name="Oacute" unicode="&#xd3;" horiz-adv-x="1614" 
 />
    <glyph glyph-name="Ocircumflex" unicode="&#xd4;" horiz-adv-x="1614" 
 />
    <glyph glyph-name="Otilde" unicode="&#xd5;" horiz-adv-x="1614" 
 />
    <glyph glyph-name="Odieresis" unicode="&#xd6;" horiz-adv-x="1614" 
 />
    <glyph glyph-name="multiply" unicode="&#xd7;" horiz-adv-x="1014" 
d="M799 202q0 42 -29 72l-227 226l227 227q29 30 29 72t-29 72q-30 29 -72 29q-41 0 -72 -29l-226 -227l-227 227q-31 29 -72 29q-42 0 -71 -29q-30 -30 -30 -72t29 -72l227 -227l-226 -226q-30 -30 -30 -72t30 -72q29 -29 71 -29q43 0 72 29l227 227l226 -227
q30 -29 72 -29t72 29q29 30 29 72z" />
    <glyph glyph-name="Oslash" unicode="&#xd8;" horiz-adv-x="1614" 
 />
    <glyph glyph-name="Ugrave" unicode="&#xd9;" horiz-adv-x="1501" 
 />
    <glyph glyph-name="Uacute" unicode="&#xda;" horiz-adv-x="1501" 
 />
    <glyph glyph-name="Ucircumflex" unicode="&#xdb;" horiz-adv-x="1501" 
 />
    <glyph glyph-name="Udieresis" unicode="&#xdc;" horiz-adv-x="1501" 
 />
    <glyph glyph-name="Yacute" unicode="&#xdd;" horiz-adv-x="1233" 
 />
    <glyph glyph-name="Thorn" unicode="&#xde;" horiz-adv-x="1120" 
 />
    <glyph glyph-name="germandbls" unicode="&#xdf;" horiz-adv-x="1251" 
 />
    <glyph glyph-name="agrave" unicode="&#xe0;" horiz-adv-x="922" 
 />
    <glyph glyph-name="aacute" unicode="&#xe1;" horiz-adv-x="922" 
 />
    <glyph glyph-name="acircumflex" unicode="&#xe2;" horiz-adv-x="922" 
 />
    <glyph glyph-name="atilde" unicode="&#xe3;" horiz-adv-x="922" 
 />
    <glyph glyph-name="adieresis" unicode="&#xe4;" horiz-adv-x="922" 
 />
    <glyph glyph-name="aring" unicode="&#xe5;" horiz-adv-x="922" 
 />
    <glyph glyph-name="ae" unicode="&#xe6;" horiz-adv-x="1454" 
 />
    <glyph glyph-name="ccedilla" unicode="&#xe7;" horiz-adv-x="905" 
 />
    <glyph glyph-name="egrave" unicode="&#xe8;" horiz-adv-x="909" 
 />
    <glyph glyph-name="eacute" unicode="&#xe9;" horiz-adv-x="909" 
 />
    <glyph glyph-name="ecircumflex" unicode="&#xea;" horiz-adv-x="909" 
 />
    <glyph glyph-name="edieresis" unicode="&#xeb;" horiz-adv-x="909" 
 />
    <glyph glyph-name="igrave" unicode="&#xec;" horiz-adv-x="514" 
 />
    <glyph glyph-name="iacute" unicode="&#xed;" horiz-adv-x="514" 
 />
    <glyph glyph-name="icircumflex" unicode="&#xee;" horiz-adv-x="514" 
 />
    <glyph glyph-name="idieresis" unicode="&#xef;" horiz-adv-x="514" 
 />
    <glyph glyph-name="eth" unicode="&#xf0;" horiz-adv-x="1139" 
 />
    <glyph glyph-name="ntilde" unicode="&#xf1;" horiz-adv-x="1108" 
 />
    <glyph glyph-name="ograve" unicode="&#xf2;" horiz-adv-x="1010" 
 />
    <glyph glyph-name="oacute" unicode="&#xf3;" horiz-adv-x="1010" 
 />
    <glyph glyph-name="ocircumflex" unicode="&#xf4;" horiz-adv-x="1010" 
 />
    <glyph glyph-name="otilde" unicode="&#xf5;" horiz-adv-x="1010" 
 />
    <glyph glyph-name="odieresis" unicode="&#xf6;" horiz-adv-x="1010" 
 />
    <glyph glyph-name="divide" unicode="&#xf7;" horiz-adv-x="1014" 
 />
    <glyph glyph-name="oslash" unicode="&#xf8;" horiz-adv-x="1010" 
 />
    <glyph glyph-name="ugrave" unicode="&#xf9;" horiz-adv-x="1059" 
 />
    <glyph glyph-name="uacute" unicode="&#xfa;" horiz-adv-x="1059" 
 />
    <glyph glyph-name="ucircumflex" unicode="&#xfb;" horiz-adv-x="1059" 
 />
    <glyph glyph-name="udieresis" unicode="&#xfc;" horiz-adv-x="1059" 
 />
    <glyph glyph-name="yacute" unicode="&#xfd;" horiz-adv-x="868" 
 />
    <glyph glyph-name="thorn" unicode="&#xfe;" horiz-adv-x="1010" 
 />
    <glyph glyph-name="ydieresis" unicode="&#xff;" horiz-adv-x="868" 
 />
    <glyph glyph-name="uni02C9" unicode="&#x2c9;" horiz-adv-x="1024" 
d="M254 1195v125h516v-125h-516z" />
    <glyph glyph-name="tilde" unicode="&#x2dc;" horiz-adv-x="1024" 
 />
    <glyph glyph-name="hungarumlaut" unicode="&#x2dd;" horiz-adv-x="800" 
d="M544 1310q15 37 -1 64q-17 26 -54 26t-74 -26q-38 -27 -52 -64l-36 -91q-13 -33 -1 -59q11 -25 41 -30l-45 -46q-18 -19 -21 -41q-2 -21 12 -32q15 -11 39 -5q23 5 42 24q3 4 18 18q14 14 22 23q28 29 34 43zM245 1310q14 37 -2 64q-16 26 -54 26q-37 0 -74 -26
q-37 -27 -52 -64l-35 -91q-13 -33 -2 -59q12 -25 42 -30l-45 -47q-19 -19 -21 -40q-3 -21 12 -32q14 -11 38 -6q24 6 42 25q3 4 18 18l23 23q27 28 33 43z" />
    <glyph glyph-name="endash" unicode="&#x2013;" horiz-adv-x="1100" 
d="M861 550q-25 26 -60 26h-715q-36 -1 -60 -26q-26 -25 -26 -62q0 -36 26 -62q24 -26 59 -26h716q35 0 60 26t25 62q0 37 -25 62z" />
    <glyph glyph-name="emdash" unicode="&#x2014;" horiz-adv-x="1300" 
d="M1056 550q-31 26 -75 26h-876q-44 -1 -74 -26q-31 -25 -31 -62q0 -36 31 -62t74 -26h876q44 0 75 26t31 62q0 37 -31 62z" />
    <glyph glyph-name="quoteleft" unicode="&#x2018;" horiz-adv-x="557" 
d="M0 1378q0 -37 27 -64q26 -27 64 -27q37 0 64 27q26 27 26 64v91q0 33 -21 58q-21 26 -53 31l26 46q11 19 6 41q-6 21 -25 32t-41 5q-21 -5 -32 -24q-2 -4 -11 -18t-14 -23q-16 -29 -16 -43v-196z" />
    <glyph glyph-name="quoteright" unicode="&#x2019;" horiz-adv-x="400" 
d="M181 1594q0 37 -26 64q-27 26 -64 26q-38 0 -64 -26q-27 -27 -27 -64v-91q0 -33 22 -59q21 -25 53 -30l-27 -47q-11 -19 -5 -40t25 -32t40 -6q21 6 32 25q2 4 11 18t14 23q16 28 16 43v196z" />
    <glyph glyph-name="quotesinglbase" unicode="&#x201a;" horiz-adv-x="400" 
d="M181 174q0 37 -26 64q-27 26 -64 26q-38 0 -64 -26q-27 -27 -27 -64v-91q0 -33 22 -59q21 -25 53 -30l-27 -47q-11 -19 -5 -40t25 -32t40 -6q21 6 32 25q2 4 11 18t14 23q16 28 16 43v196z" />
    <glyph glyph-name="quotedblleft" unicode="&#x201c;" horiz-adv-x="700" 
d="M0 1094q0 -37 27 -64q26 -27 64 -27q37 0 64 27q26 27 26 64v91q0 33 -21 58q-21 26 -53 31l26 46q11 19 6 41q-6 21 -25 32t-41 5q-21 -5 -32 -24q-2 -4 -11 -18t-14 -23q-16 -29 -16 -43v-196zM300 1094q0 -37 26 -64q27 -26 64 -26q38 0 64 26q27 27 27 64v91
q0 33 -22 59q-21 25 -53 30l27 46q11 19 5 41q-6 21 -25 32t-40 5q-21 -5 -32 -24q-2 -4 -11 -18t-14 -23q-16 -29 -16 -43v-196z" />
    <glyph glyph-name="quotedblright" unicode="&#x201d;" horiz-adv-x="700" 
d="M481 1310q0 37 -27 64q-26 26 -64 26q-37 0 -64 -26q-26 -27 -26 -64v-91q0 -33 21 -59q21 -25 53 -30l-26 -46q-11 -19 -5 -41q5 -21 24 -32t41 -5q21 5 32 24q2 4 11 18t14 23q16 29 16 43v196zM181 1310q0 37 -26 64q-27 26 -64 26q-38 0 -64 -26q-27 -27 -27 -64v-91
q0 -33 22 -59q21 -25 53 -30l-27 -47q-11 -19 -5 -40t25 -32t40 -6q21 6 32 25q2 4 11 18t14 23q16 28 16 43v196z" />
    <glyph glyph-name="quotedblbase" unicode="&#x201e;" horiz-adv-x="700" 
d="M481 174q0 37 -27 64q-26 26 -64 26q-37 0 -64 -26q-26 -27 -26 -64v-91q0 -33 21 -59q21 -25 53 -30l-26 -46q-11 -19 -5 -41q5 -21 24 -32t41 -5q21 5 32 24q2 4 11 18t14 23q16 29 16 43v196zM181 174q0 37 -26 64q-27 26 -64 26q-38 0 -64 -26q-27 -27 -27 -64v-91
q0 -33 22 -59q21 -25 53 -30l-27 -47q-11 -19 -5 -40t25 -32t40 -6q21 6 32 25q2 4 11 18t14 23q16 28 16 43v196z" />
    <glyph glyph-name="dagger" unicode="&#x2020;" horiz-adv-x="1014" 
 />
    <glyph glyph-name="lessequal" unicode="&#x2264;" 
d="M673 776l-95 -51l-2 -2l-24 -13l-3 -1l-19 -10l-3 -2l-7 -4l-5 -2l-5 -3l-7 -4l-2 -1l-10 -5v0l-10 -6l-2 -1l-8 -4l-29 -16v0l-4 -2l-15 -8l-5 -3l-5 -2l-7 -4l-3 -2l-40 -22l-18 -9v0l-9 -5l-3 -1l-1 -1l-16 -9l-7 -4l-3 -1l-15 -8l-18 -10l-5 -3l-8 -4l-2 -1l-46 -25
l-3 -1l-9 -6l-10 -5l-2 -1l-8 -4l-17 -9l-2 -1l-22 -12l-7 -4l-5 -3l-5 -2l-7 -4l-3 -2l-9 -5l-29 -15l-20 -11q-38 -22 -50 -61q-12 -40 10 -77q22 -35 66 -46q43 -11 81 9l778 420h1l1 1l2 1l1 1l2 1v0l2 1h1q1 2 3 3h1v0l1 1l1 1v0l1 1l2 1l1 1v0v1l2 1l1 1v0q4 4 7 8v0
q2 2 4 5v0l2 2v0v1h1l1 2v1h1q13 20 15 44q4 30 -10 58t-43 43l-778 419q-38 21 -81 10q-44 -11 -66 -47t-10 -76q11 -39 50 -61q-36 19 620 -335zM963 153q-28 26 -67 26h-800q-40 -1 -67 -26q-29 -26 -29 -63t29 -63q28 -27 67 -27h800q39 0 67 26q29 27 29 64t-29 63z
" />
    <glyph glyph-name="greaterequal" unicode="&#x2265;" 
d="M319 777q656 354 620 335q39 22 51 61q11 40 -11 76t-65 47q-44 11 -82 -10l-778 -419q-29 -15 -43 -43t-10 -58q3 -24 16 -44v0v-1l1 -2h1v-1v0l2 -2v0q2 -3 4 -5v0q3 -4 7 -8h1l1 -1l1 -1l1 -1v0l1 -1l1 -1l1 -1h1v-1l1 -1v0h1q2 -1 3 -3h1l2 -1v0l2 -1l1 -1l2 -1l1 -1
h1l778 -420q38 -20 81 -9q44 11 66 46q22 37 10 77q-12 39 -50 61l-20 11l-29 15l-9 5l-3 2l-7 4l-5 2l-5 3l-7 4l-22 12l-2 1l-17 9l-7 4l-3 1l-9 5l-10 6l-3 1l-46 25l-2 1l-7 4l-5 3l-19 10l-15 8l-3 1l-7 4l-16 9l-1 1l-2 1l-10 5v0l-18 9l-40 22l-3 2l-7 4l-5 2l-5 3
l-15 8l-4 2v0l-29 16l-8 4l-2 1l-10 6v0l-9 5l-3 1l-7 4l-5 3l-5 2l-7 4l-3 2l-19 10l-3 1l-24 13l-2 2l-95 51zM2 90q0 -37 29 -64q28 -26 67 -26h800q39 0 68 27q28 26 28 63t-29 63q-27 25 -67 26h-800q-39 0 -67 -26q-29 -26 -29 -63z" />
    <glyph glyph-name="uniF001" unicode="&#xf001;" horiz-adv-x="1073" 
 />
    <glyph glyph-name="uniF001" unicode="&#xfb01;" horiz-adv-x="1073" 
 />
    <glyph glyph-name="uniF002" unicode="&#xf002;" horiz-adv-x="1081" 
 />
    <glyph glyph-name="uniF002" unicode="&#xfb02;" horiz-adv-x="1081" 
 />
  </font>
</defs>
</svg>
